<?xml version="1.0" encoding="UTF-8" standalone="no"?>
<!-- Created with Inkscape (http://www.inkscape.org/) -->

<svg
   xmlns:dc="http://purl.org/dc/elements/1.1/"
   xmlns:cc="http://creativecommons.org/ns#"
   xmlns:rdf="http://www.w3.org/1999/02/22-rdf-syntax-ns#"
   xmlns:svg="http://www.w3.org/2000/svg"
   xmlns="http://www.w3.org/2000/svg"
   xmlns:xlink="http://www.w3.org/1999/xlink"
   xmlns:sodipodi="http://sodipodi.sourceforge.net/DTD/sodipodi-0.dtd"
   xmlns:inkscape="http://www.inkscape.org/namespaces/inkscape"
   width="97.789993mm"
   height="84.412651mm"
   viewBox="0 0 97.78999 84.412651"
   version="1.1"
   id="svg8"
   inkscape:version="0.92.2 (5c3e80d, 2017-08-06)"
   sodipodi:docname="drowning.svg">
  <defs
     id="defs2">
    <linearGradient
       inkscape:collect="always"
       id="linearGradient2313">
      <stop
         style="stop-color:#003149;stop-opacity:1;"
         offset="0"
         id="stop2309" />
      <stop
         style="stop-color:#003149;stop-opacity:0;"
         offset="1"
         id="stop2311" />
    </linearGradient>
    <filter
       inkscape:collect="always"
       style="color-interpolation-filters:sRGB"
       id="filter2023"
       x="-0.77689052"
       width="2.553781"
       y="-1.2979757"
       height="3.5959513">
      <feGaussianBlur
         inkscape:collect="always"
         stdDeviation="11.733609"
         id="feGaussianBlur2025" />
    </filter>
    <linearGradient
       inkscape:collect="always"
       xlink:href="#linearGradient2313"
       id="linearGradient2417"
       gradientUnits="userSpaceOnUse"
       x1="487.62708"
       y1="497.68643"
       x2="490.42014"
       y2="-86.231369"
       gradientTransform="matrix(0.91589164,0,0,0.91589164,41.033443,38.000358)" />
  </defs>
  <sodipodi:namedview
     id="base"
     pagecolor="#ffffff"
     bordercolor="#666666"
     borderopacity="1.0"
     inkscape:pageopacity="0.0"
     inkscape:pageshadow="2"
     inkscape:zoom="0.45254834"
     inkscape:cx="133.04194"
     inkscape:cy="190.2863"
     inkscape:document-units="mm"
     inkscape:current-layer="layer1"
     showgrid="false"
     inkscape:snap-global="false"
     inkscape:snap-bbox="true"
     inkscape:bbox-paths="true"
     inkscape:bbox-nodes="true"
     inkscape:snap-bbox-edge-midpoints="true"
     fit-margin-top="0"
     fit-margin-left="0"
     fit-margin-right="0"
     fit-margin-bottom="0"
     inkscape:window-width="1366"
     inkscape:window-height="749"
     inkscape:window-x="-4"
     inkscape:window-y="-4"
     inkscape:window-maximized="1"
     inkscape:snap-object-midpoints="true"
     inkscape:snap-nodes="true"
     inkscape:snap-center="false"
     inkscape:snap-others="false"
     inkscape:snap-bbox-midpoints="true" />
  <metadata
     id="metadata5">
    <rdf:RDF>
      <cc:Work
         rdf:about="">
        <dc:format>image/svg+xml</dc:format>
        <dc:type
           rdf:resource="http://purl.org/dc/dcmitype/StillImage" />
        <dc:title />
      </cc:Work>
    </rdf:RDF>
  </metadata>
  <g
     inkscape:label="Layer 1"
     inkscape:groupmode="layer"
     id="layer1"
     transform="translate(-438.96905,-409.59608)">
    <rect
       style="opacity:1;vector-effect:none;fill:#ffffff;fill-opacity:1;stroke:none;stroke-width:0.18520829;stroke-linecap:butt;stroke-linejoin:round;stroke-miterlimit:4;stroke-dasharray:none;stroke-dashoffset:0;stroke-opacity:1;paint-order:markers stroke fill"
       id="rect1053"
       width="97.789993"
       height="84.412651"
       x="438.96906"
       y="409.59607" />
    <ellipse
       style="opacity:1;vector-effect:none;fill:url(#linearGradient2417);fill-opacity:1;stroke:none;stroke-width:0;stroke-linecap:butt;stroke-linejoin:round;stroke-miterlimit:4;stroke-dasharray:none;stroke-dashoffset:0;stroke-opacity:1;paint-order:markers stroke fill"
       id="path2307"
       cx="486.19302"
       cy="452.38882"
       rx="45.800304"
       ry="41.559536" />
    <circle
       style="opacity:1;vector-effect:none;fill:#688593;fill-opacity:1;stroke:none;stroke-width:0;stroke-linecap:butt;stroke-linejoin:round;stroke-miterlimit:4;stroke-dasharray:none;stroke-dashoffset:0;stroke-opacity:1;paint-order:markers stroke fill"
       id="circle1163"
       cx="498.31305"
       cy="454.42087"
       r="0.6266126" />
    <g
       id="g1037"
       transform="matrix(0.72378787,0,0,0.72378787,450.19616,110.1127)">
      <path
         style="opacity:1;vector-effect:none;fill:none;fill-opacity:1;stroke:#1d1a0d;stroke-width:0.18520834;stroke-linecap:butt;stroke-linejoin:round;stroke-miterlimit:4;stroke-dasharray:none;stroke-dashoffset:0;stroke-opacity:1;paint-order:markers stroke fill"
         d="m 74.371281,498.95392 a 0.50983042,0.80826771 0 0 1 -0.509831,0.80827 0.50983042,0.80826771 0 0 1 -0.50983,-0.80827 0.50983042,0.80826771 0 0 1 0.50983,-0.80827 0.50983042,0.80826771 0 0 1 0.509831,0.80827 z"
         id="path1001"
         inkscape:connector-curvature="0" />
      <path
         style="opacity:1;vector-effect:none;fill:none;fill-opacity:1;stroke:#1d1a0d;stroke-width:0.18520834;stroke-linecap:butt;stroke-linejoin:round;stroke-miterlimit:4;stroke-dasharray:none;stroke-dashoffset:0;stroke-opacity:1;paint-order:markers stroke fill"
         d="m 74.371281,499.9035 a 0.50983042,0.80826771 0 0 1 -0.509831,0.80827 0.50983042,0.80826771 0 0 1 -0.50983,-0.80827 0.50983042,0.80826771 0 0 1 0.50983,-0.80826 0.50983042,0.80826771 0 0 1 0.509831,0.80826 z"
         id="ellipse1003"
         inkscape:connector-curvature="0" />
      <path
         style="opacity:1;vector-effect:none;fill:none;fill-opacity:1;stroke:#1d1a0d;stroke-width:0.18520834;stroke-linecap:butt;stroke-linejoin:round;stroke-miterlimit:4;stroke-dasharray:none;stroke-dashoffset:0;stroke-opacity:1;paint-order:markers stroke fill"
         d="m 74.371281,500.92349 a 0.50983042,0.80826771 0 0 1 -0.509831,0.80827 0.50983042,0.80826771 0 0 1 -0.50983,-0.80827 0.50983042,0.80826771 0 0 1 0.50983,-0.80827 0.50983042,0.80826771 0 0 1 0.509831,0.80827 z"
         id="ellipse1005"
         inkscape:connector-curvature="0" />
      <path
         style="opacity:1;vector-effect:none;fill:none;fill-opacity:1;stroke:#1d1a0d;stroke-width:0.18520834;stroke-linecap:butt;stroke-linejoin:round;stroke-miterlimit:4;stroke-dasharray:none;stroke-dashoffset:0;stroke-opacity:1;paint-order:markers stroke fill"
         d="m 74.371281,502.01379 a 0.50983042,0.80826771 0 0 1 -0.509831,0.80827 0.50983042,0.80826771 0 0 1 -0.50983,-0.80827 0.50983042,0.80826771 0 0 1 0.50983,-0.80826 0.50983042,0.80826771 0 0 1 0.509831,0.80826 z"
         id="ellipse1007"
         inkscape:connector-curvature="0" />
      <path
         style="opacity:1;vector-effect:none;fill:none;fill-opacity:1;stroke:#1d1a0d;stroke-width:0.18520834;stroke-linecap:butt;stroke-linejoin:round;stroke-miterlimit:4;stroke-dasharray:none;stroke-dashoffset:0;stroke-opacity:1;paint-order:markers stroke fill"
         d="m 74.40646,494.9444 a 0.50983042,0.80826771 0 0 1 -0.509831,0.80826 0.50983042,0.80826771 0 0 1 -0.50983,-0.80826 0.50983042,0.80826771 0 0 1 0.50983,-0.80827 0.50983042,0.80826771 0 0 1 0.509831,0.80827 z"
         id="ellipse1009"
         inkscape:connector-curvature="0" />
      <path
         style="opacity:1;vector-effect:none;fill:none;fill-opacity:1;stroke:#1d1a0d;stroke-width:0.18520834;stroke-linecap:butt;stroke-linejoin:round;stroke-miterlimit:4;stroke-dasharray:none;stroke-dashoffset:0;stroke-opacity:1;paint-order:markers stroke fill"
         d="m 74.40646,495.89401 a 0.50983042,0.80826771 0 0 1 -0.509831,0.80827 0.50983042,0.80826771 0 0 1 -0.50983,-0.80827 0.50983042,0.80826771 0 0 1 0.50983,-0.80827 0.50983042,0.80826771 0 0 1 0.509831,0.80827 z"
         id="ellipse1011"
         inkscape:connector-curvature="0" />
      <path
         style="opacity:1;vector-effect:none;fill:none;fill-opacity:1;stroke:#1d1a0d;stroke-width:0.18520834;stroke-linecap:butt;stroke-linejoin:round;stroke-miterlimit:4;stroke-dasharray:none;stroke-dashoffset:0;stroke-opacity:1;paint-order:markers stroke fill"
         d="m 74.40646,496.91397 a 0.50983042,0.80826771 0 0 1 -0.509831,0.80827 0.50983042,0.80826771 0 0 1 -0.50983,-0.80827 0.50983042,0.80826771 0 0 1 0.50983,-0.80827 0.50983042,0.80826771 0 0 1 0.509831,0.80827 z"
         id="ellipse1013"
         inkscape:connector-curvature="0" />
      <path
         style="opacity:1;vector-effect:none;fill:none;fill-opacity:1;stroke:#1d1a0d;stroke-width:0.18520834;stroke-linecap:butt;stroke-linejoin:round;stroke-miterlimit:4;stroke-dasharray:none;stroke-dashoffset:0;stroke-opacity:1;paint-order:markers stroke fill"
         d="m 74.40646,498.0043 a 0.50983042,0.80826771 0 0 1 -0.509831,0.80827 0.50983042,0.80826771 0 0 1 -0.50983,-0.80827 0.50983042,0.80826771 0 0 1 0.50983,-0.80826 0.50983042,0.80826771 0 0 1 0.509831,0.80826 z"
         id="ellipse1015"
         inkscape:connector-curvature="0" />
      <path
         style="opacity:1;vector-effect:none;fill:none;fill-opacity:1;stroke:#1d1a0d;stroke-width:0.18520834;stroke-linecap:butt;stroke-linejoin:round;stroke-miterlimit:4;stroke-dasharray:none;stroke-dashoffset:0;stroke-opacity:1;paint-order:markers stroke fill"
         d="m 74.40646,502.99857 a 0.50983042,0.80826771 0 0 1 -0.509831,0.80826 0.50983042,0.80826771 0 0 1 -0.50983,-0.80826 0.50983042,0.80826771 0 0 1 0.50983,-0.80827 0.50983042,0.80826771 0 0 1 0.509831,0.80827 z"
         id="ellipse1017"
         inkscape:connector-curvature="0" />
      <path
         style="opacity:1;vector-effect:none;fill:none;fill-opacity:1;stroke:#1d1a0d;stroke-width:0.18520834;stroke-linecap:butt;stroke-linejoin:round;stroke-miterlimit:4;stroke-dasharray:none;stroke-dashoffset:0;stroke-opacity:1;paint-order:markers stroke fill"
         d="m 74.40646,503.94821 a 0.50983042,0.80826771 0 0 1 -0.509831,0.80827 0.50983042,0.80826771 0 0 1 -0.50983,-0.80827 0.50983042,0.80826771 0 0 1 0.50983,-0.80827 0.50983042,0.80826771 0 0 1 0.509831,0.80827 z"
         id="ellipse1019"
         inkscape:connector-curvature="0" />
      <path
         style="opacity:1;vector-effect:none;fill:none;fill-opacity:1;stroke:#1d1a0d;stroke-width:0.18520834;stroke-linecap:butt;stroke-linejoin:round;stroke-miterlimit:4;stroke-dasharray:none;stroke-dashoffset:0;stroke-opacity:1;paint-order:markers stroke fill"
         d="m 74.40646,504.96817 a 0.50983042,0.80826771 0 0 1 -0.509831,0.80827 0.50983042,0.80826771 0 0 1 -0.50983,-0.80827 0.50983042,0.80826771 0 0 1 0.50983,-0.80827 0.50983042,0.80826771 0 0 1 0.509831,0.80827 z"
         id="ellipse1021"
         inkscape:connector-curvature="0" />
      <path
         style="opacity:1;vector-effect:none;fill:none;fill-opacity:1;stroke:#1d1a0d;stroke-width:0.18520834;stroke-linecap:butt;stroke-linejoin:round;stroke-miterlimit:4;stroke-dasharray:none;stroke-dashoffset:0;stroke-opacity:1;paint-order:markers stroke fill"
         d="m 74.40646,506.05847 a 0.50983042,0.80826771 0 0 1 -0.509831,0.80827 0.50983042,0.80826771 0 0 1 -0.50983,-0.80827 0.50983042,0.80826771 0 0 1 0.50983,-0.80827 0.50983042,0.80826771 0 0 1 0.509831,0.80827 z"
         id="ellipse1023"
         inkscape:connector-curvature="0" />
    </g>
    <path
       style="opacity:1;vector-effect:none;fill:#75523b;fill-opacity:1;stroke:none;stroke-width:0;stroke-linecap:butt;stroke-linejoin:round;stroke-miterlimit:4;stroke-dasharray:none;stroke-dashoffset:0;stroke-opacity:1;paint-order:markers stroke fill"
       d="m 506.52418,467.77252 c 0.24153,-0.55292 -0.50668,-0.98517 -1.05962,-1.2267 0,0 -6.41693,-1.37397 -9.25202,-2.93245 -1.44055,-0.79188 -3.77725,-3.17063 -3.77725,-3.17063 -0.46214,-0.38793 -1.19249,0.009 -1.43401,0.56208 -0.24152,0.55293 0.009,1.1925 0.56209,1.43402 0,0 2.41191,2.44859 3.91167,3.22935 2.91145,1.51569 9.49075,2.62497 9.49075,2.62497 0.58153,0.16085 1.31687,0.0323 1.55839,-0.52064 z"
       id="rect849-4"
       inkscape:connector-curvature="0"
       sodipodi:nodetypes="ssasssass" />
    <path
       style="opacity:1;vector-effect:none;fill:#007676;fill-opacity:1;stroke:none;stroke-width:0;stroke-linecap:butt;stroke-linejoin:round;stroke-miterlimit:4;stroke-dasharray:none;stroke-dashoffset:0;stroke-opacity:1;paint-order:markers stroke fill"
       d="m 494.62872,462.11255 -3.19483,1.68144 c -0.77701,-1.23066 -1.95184,-3.26754 -3.58221,-3.31976 -1.64752,-0.0528 0.0945,-1.46125 1.16324,-2.08336 2.00416,-1.16661 4.24585,1.2937 5.6138,3.72168 z"
       id="rect831-7"
       inkscape:connector-curvature="0"
       sodipodi:nodetypes="ccssc" />
    <path
       style="opacity:1;vector-effect:none;fill:#007676;fill-opacity:1;stroke:none;stroke-width:0;stroke-linecap:butt;stroke-linejoin:round;stroke-miterlimit:4;stroke-dasharray:none;stroke-dashoffset:0;stroke-opacity:1;paint-order:markers stroke fill"
       d="m 483.86863,451.1334 c 4.94344,4.97883 10.7916,3.03194 8.6867,7.22529 -2.29122,4.56452 -11.3101,1.93724 -16.06588,-3.22116 -2.59105,-2.81042 -3.46006,-4.15499 -3.46006,-4.15499 l 6.1367,-5.97068 c 0.0468,0.056 1.38962,2.7849 4.70254,6.12154 z"
       id="path826"
       inkscape:connector-curvature="0"
       sodipodi:nodetypes="sssccs" />
    <path
       style="opacity:1;vector-effect:none;fill:#75523b;fill-opacity:1;stroke:none;stroke-width:0;stroke-linecap:butt;stroke-linejoin:round;stroke-miterlimit:4;stroke-dasharray:none;stroke-dashoffset:0;stroke-opacity:1;paint-order:markers stroke fill"
       d="m 489.48389,437.20612 c 0.5978,0 1.07905,0.48125 1.07905,1.07905 0,0 -1.62227,6.51205 -1.38067,9.80317 0.11924,1.62429 1.38067,4.68686 1.38067,4.68686 0.16892,0.57343 -0.48125,1.07904 -1.07905,1.07904 -0.59779,0 -1.07903,-0.48125 -1.07903,-1.07904 0,0 -1.26659,-3.1609 -1.38067,-4.8322 -0.22148,-3.24445 1.38067,-9.65783 1.38067,-9.65783 0.0846,-0.59177 0.48124,-1.07905 1.07903,-1.07905 z"
       id="rect849"
       inkscape:connector-curvature="0"
       sodipodi:nodetypes="ssasssass" />
    <path
       style="opacity:1;vector-effect:none;fill:#007676;fill-opacity:1;stroke:none;stroke-width:0;stroke-linecap:butt;stroke-linejoin:round;stroke-miterlimit:4;stroke-dasharray:none;stroke-dashoffset:0;stroke-opacity:1;paint-order:markers stroke fill"
       d="m 486.73443,450.6558 c 0,0 2.60973,-0.8218 3.31473,-1.09211 1.19237,2.88123 3.1283,5.70069 0.95501,6.50969 -2.17328,0.809 -3.33436,-2.79241 -4.26974,-5.41758 z"
       id="rect831"
       inkscape:connector-curvature="0"
       sodipodi:nodetypes="cczc" />
    <ellipse
       style="opacity:1;vector-effect:none;fill:#232323;fill-opacity:1;stroke:none;stroke-width:0;stroke-linecap:butt;stroke-linejoin:round;stroke-miterlimit:4;stroke-dasharray:none;stroke-dashoffset:0;stroke-opacity:1;paint-order:markers stroke fill"
       id="path867"
       cx="494.87939"
       cy="457.06381"
       rx="4.4401064"
       ry="3.5214641" />
    <path
       style="opacity:1;vector-effect:none;fill:#222626;fill-opacity:1;stroke:none;stroke-width:0;stroke-linecap:butt;stroke-linejoin:round;stroke-miterlimit:4;stroke-dasharray:none;stroke-dashoffset:0;stroke-opacity:1;paint-order:markers stroke fill"
       d="m 471.28403,447.59326 c -0.34521,-1.52784 7.4765,-7.81949 7.13455,-6.08984 -0.34195,1.72964 0.74751,3.50844 0.74751,3.50844 l -6.13672,5.97067 c 0,0 -1.40013,-1.86143 -1.74534,-3.38927 z"
       id="rect871"
       inkscape:connector-curvature="0"
       sodipodi:nodetypes="zzccz" />
    <path
       style="opacity:1;vector-effect:none;fill:#222626;fill-opacity:1;stroke:none;stroke-width:0;stroke-linecap:butt;stroke-linejoin:round;stroke-miterlimit:4;stroke-dasharray:none;stroke-dashoffset:0;stroke-opacity:1;paint-order:markers stroke fill"
       d="m 470.1488,433.68622 1.00286,-0.18913 c 0.73339,-0.13831 1.42945,0.34181 1.56069,1.0765 l 2.16165,12.10137 c 0.13124,0.73469 -0.35353,1.4375 -1.08692,1.57582 l -1.00286,0.18913 c -0.73339,0.13832 -1.03814,0.7015 -1.42625,-0.54537 -0.38811,-1.24687 -2.2961,-12.63249 -2.2961,-12.63249 -0.13123,-0.7347 0.35354,-1.43751 1.08693,-1.57583 z"
       id="rect874"
       inkscape:connector-curvature="0"
       sodipodi:nodetypes="sssssszss" />
    <rect
       style="opacity:1;vector-effect:none;fill:#222626;fill-opacity:1;stroke:none;stroke-width:0;stroke-linecap:butt;stroke-linejoin:round;stroke-miterlimit:4;stroke-dasharray:none;stroke-dashoffset:0;stroke-opacity:1;paint-order:markers stroke fill"
       id="rect874-4"
       width="3.1452868"
       height="12.831205"
       x="589.91406"
       y="260.77609"
       ry="1.1533514"
       transform="matrix(0.9495737,0.31354393,-0.31485654,0.94913927,0,0)" />
    <rect
       style="opacity:1;vector-effect:none;fill:#222626;fill-opacity:1;stroke:none;stroke-width:0;stroke-linecap:butt;stroke-linejoin:round;stroke-miterlimit:4;stroke-dasharray:none;stroke-dashoffset:0;stroke-opacity:1;paint-order:markers stroke fill"
       id="rect874-5"
       width="3.3663504"
       height="13.496467"
       x="155.96867"
       y="608.38135"
       ry="1.2131494"
       transform="matrix(0.84053695,-0.54175422,0.54539418,0.83817969,0,0)" />
    <rect
       style="opacity:1;vector-effect:none;fill:#222626;fill-opacity:1;stroke:none;stroke-width:0;stroke-linecap:butt;stroke-linejoin:round;stroke-miterlimit:4;stroke-dasharray:none;stroke-dashoffset:0;stroke-opacity:1;paint-order:markers stroke fill"
       id="rect874-5-3"
       width="3.1370249"
       height="11.728814"
       x="466.21939"
       y="432.00238"
       ry="1.0542613"
       transform="matrix(0.99982858,-0.01851499,0.02594054,0.99966349,0,0)" />
    <path
       style="opacity:1;vector-effect:none;fill:#697d7d;fill-opacity:1;stroke:none;stroke-width:0;stroke-linecap:butt;stroke-linejoin:round;stroke-miterlimit:4;stroke-dasharray:none;stroke-dashoffset:0;stroke-opacity:1;paint-order:markers stroke fill"
       d="m 466.01478,426.1172 c -0.2328,0.27996 -0.59798,0.44421 -1.02984,0.42279 l -0.31342,-0.0157 c -0.81306,-0.0405 -1.54593,-0.72377 -1.64327,-1.53201 0.0306,-0.89087 -0.12065,-1.98251 -0.18183,-2.85402 -0.0828,-1.17898 -0.38421,-1.37951 1.52136,-3.74701 0.74679,-0.92779 1.09122,-1.08137 1.81122,-0.85926 0.92641,0.2637 0.61086,1.13123 0.41878,1.60311 -0.19112,0.47069 -0.54073,1.77758 -0.74002,2.93342 -0.14371,0.83349 0.31512,2.22215 0.41909,3.08557 0.0456,0.37885 -0.0567,0.71596 -0.26207,0.963 z"
       id="rect962"
       inkscape:connector-curvature="0"
       sodipodi:nodetypes="ccccssccscc" />
    <path
       style="opacity:1;vector-effect:none;fill:#697d7d;fill-opacity:1;stroke:none;stroke-width:0;stroke-linecap:butt;stroke-linejoin:round;stroke-miterlimit:4;stroke-dasharray:none;stroke-dashoffset:0;stroke-opacity:1;paint-order:markers stroke fill"
       d="m 478.95077,416.58269 c 1.10445,0 1.99926,1.84234 1.81769,2.93175 l -0.41045,2.46268 c -0.18156,1.08941 -0.30279,2.69719 -1.40724,2.69719 -1.10444,0 -1.51273,-1.65895 -1.64178,-2.75583 l -0.23453,-1.99359 c -0.12905,-1.09688 0.77187,-3.3422 1.87631,-3.3422 z"
       id="rect957"
       inkscape:connector-curvature="0"
       sodipodi:nodetypes="sssssss" />
    <path
       style="opacity:1;vector-effect:none;fill:#1b1b1b;fill-opacity:1;stroke:none;stroke-width:0.13405155;stroke-linecap:butt;stroke-linejoin:round;stroke-miterlimit:4;stroke-dasharray:none;stroke-dashoffset:0;stroke-opacity:1;paint-order:markers stroke fill"
       d="m 503.25266,466.02305 0.97272,0.23842 c 0.43431,0.44239 0.49361,1.44066 -0.13524,1.87324 l -0.9209,-0.18543 c 0.5544,-0.49155 0.66073,-1.35602 0.0834,-1.92623 z"
       id="rect976"
       inkscape:connector-curvature="0"
       sodipodi:nodetypes="ccccc" />
    <ellipse
       style="opacity:1;vector-effect:none;fill:#1a1a1a;fill-opacity:1;stroke:none;stroke-width:0.11823514;stroke-linecap:butt;stroke-linejoin:round;stroke-miterlimit:4;stroke-dasharray:none;stroke-dashoffset:0;stroke-opacity:1;paint-order:markers stroke fill"
       id="path1051"
       cx="503.68408"
       cy="482.08853"
       rx="7.0466957"
       ry="7.3452854" />
    <circle
       style="opacity:1;vector-effect:none;fill:#688593;fill-opacity:1;stroke:none;stroke-width:0;stroke-linecap:butt;stroke-linejoin:round;stroke-miterlimit:4;stroke-dasharray:none;stroke-dashoffset:0;stroke-opacity:1;paint-order:markers stroke fill"
       id="path1155"
       cx="501.31781"
       cy="432.88654"
       r="3.0291207" />
    <path
       style="opacity:1;vector-effect:none;fill:#688593;fill-opacity:1;stroke:none;stroke-width:0;stroke-linecap:butt;stroke-linejoin:round;stroke-miterlimit:4;stroke-dasharray:none;stroke-dashoffset:0;stroke-opacity:1;paint-order:markers stroke fill"
       d="m 502.53856,445.83983 c -0.48396,0 -0.69093,0.30806 -0.69093,0.79203 0,0.48397 0.13956,0.82574 0.62352,0.82574 0.11083,-7e-5 0.42827,-0.0609 0.57638,-0.0116 0.14812,0.0493 0.58723,0.1125 0.78861,0.11269 0.48396,0 0.85944,-0.25751 0.85944,-0.74148 0,-0.48396 -0.27436,-0.74148 -0.75833,-0.74148 -0.11082,7e-5 -0.344,-0.14134 -0.66063,-0.12322 -0.31664,0.0181 -0.53667,-0.11251 -0.73806,-0.1127 z"
       id="circle1157"
       inkscape:connector-curvature="0"
       sodipodi:nodetypes="csczcsczc" />
    <circle
       cy="452.5213"
       cx="501.259"
       id="circle1161"
       style="opacity:1;vector-effect:none;fill:#688593;fill-opacity:1;stroke:none;stroke-width:0;stroke-linecap:butt;stroke-linejoin:round;stroke-miterlimit:4;stroke-dasharray:none;stroke-dashoffset:0;stroke-opacity:1;paint-order:markers stroke fill"
       r="0.96931851" />
    <use
       id="use1329"
       inkscape:spray-origin="#circle1163"
       xlink:href="#circle1163"
       transform="matrix(0.97934709,0,0,0.97934709,-41.062289,-20.443418)"
       x="0"
       y="0"
       width="100%"
       height="100%"
       style="fill:#688593;fill-opacity:1" />
    <use
       id="use1331"
       inkscape:spray-origin="#circle1163"
       xlink:href="#circle1163"
       transform="matrix(1.0812164,0,0,1.0812164,-91.401365,-58.227083)"
       x="0"
       y="0"
       width="100%"
       height="100%"
       style="fill:#688593;fill-opacity:1" />
    <use
       id="use1333"
       inkscape:spray-origin="#circle1163"
       xlink:href="#circle1163"
       transform="matrix(1.284174,0,0,1.284174,-189.71478,-147.95461)"
       x="0"
       y="0"
       width="100%"
       height="100%"
       style="fill:#688593;fill-opacity:1" />
    <use
       id="use1335"
       inkscape:spray-origin="#circle1163"
       xlink:href="#circle1163"
       transform="matrix(0.77764389,0,0,0.77764389,57.066874,82.158461)"
       x="0"
       y="0"
       width="100%"
       height="100%"
       style="fill:#688593;fill-opacity:1" />
    <use
       id="use1337"
       inkscape:spray-origin="#circle1163"
       xlink:href="#circle1163"
       transform="matrix(1.3213633,0,0,1.3213633,-208.83048,-152.48664)"
       x="0"
       y="0"
       width="100%"
       height="100%"
       style="fill:#688593;fill-opacity:1" />
    <use
       id="use1339"
       inkscape:spray-origin="#circle1163"
       xlink:href="#circle1163"
       transform="matrix(0.54814053,0,0,0.54814053,177.33607,195.67718)"
       x="0"
       y="0"
       width="100%"
       height="100%"
       style="fill:#688593;fill-opacity:1" />
    <use
       id="use1341"
       inkscape:spray-origin="#circle1163"
       xlink:href="#circle1163"
       transform="matrix(0.67917986,0,0,0.67917986,113.14365,143.76851)"
       x="0"
       y="0"
       width="100%"
       height="100%"
       style="fill:#688593;fill-opacity:1" />
    <use
       id="use1343"
       inkscape:spray-origin="#circle1163"
       xlink:href="#circle1163"
       transform="matrix(0.92707303,0,0,0.92707303,-12.124363,26.297762)"
       x="0"
       y="0"
       width="100%"
       height="100%"
       style="fill:#688593;fill-opacity:1" />
    <use
       id="use1345"
       inkscape:spray-origin="#circle1163"
       xlink:href="#circle1163"
       transform="matrix(0.82512134,0,0,0.82512134,48.962767,79.302541)"
       x="0"
       y="0"
       width="100%"
       height="100%"
       style="fill:#688593;fill-opacity:1" />
    <use
       id="use1347"
       inkscape:spray-origin="#circle1163"
       xlink:href="#circle1163"
       transform="matrix(1.5384978,0,0,1.5384978,-313.0617,-239.75507)"
       x="0"
       y="0"
       width="100%"
       height="100%"
       style="fill:#688593;fill-opacity:1" />
    <use
       id="use1349"
       inkscape:spray-origin="#circle1163"
       xlink:href="#circle1163"
       transform="matrix(0.51237015,0,0,0.51237015,223.27773,242.8624)"
       x="0"
       y="0"
       width="100%"
       height="100%"
       style="fill:#688593;fill-opacity:1" />
    <use
       id="use1351"
       inkscape:spray-origin="#circle1163"
       xlink:href="#circle1163"
       transform="matrix(1.0561155,0,0,1.0561155,-47.089608,-2.7424002)"
       x="0"
       y="0"
       width="100%"
       height="100%"
       style="fill:#688593;fill-opacity:1" />
    <use
       id="use1353"
       inkscape:spray-origin="#circle1163"
       xlink:href="#circle1163"
       transform="matrix(0.38605442,0,0,0.38605442,283.47261,299.5797)"
       x="0"
       y="0"
       width="100%"
       height="100%"
       style="fill:#688593;fill-opacity:1" />
    <use
       id="use1377"
       inkscape:spray-origin="#circle1163"
       xlink:href="#circle1163"
       transform="matrix(1.2275422,0,0,1.2275422,-165.37101,-83.47414)"
       x="0"
       y="0"
       width="100%"
       height="100%"
       style="fill:#688593;fill-opacity:1" />
    <use
       id="use1379"
       inkscape:spray-origin="#circle1163"
       xlink:href="#circle1163"
       transform="matrix(0.52165485,0,0,0.52165485,185.93623,228.8822)"
       x="0"
       y="0"
       width="100%"
       height="100%"
       style="fill:#688593;fill-opacity:1" />
    <use
       id="use1381"
       inkscape:spray-origin="#circle1163"
       xlink:href="#circle1163"
       transform="matrix(0.51004659,0,0,0.51004659,202.70093,243.85776)"
       x="0"
       y="0"
       width="100%"
       height="100%"
       style="fill:#688593;fill-opacity:1" />
    <use
       id="use1383"
       inkscape:spray-origin="#circle1163"
       xlink:href="#circle1163"
       transform="matrix(0.90902786,0,0,0.90902786,5.9032642,57.3363)"
       x="0"
       y="0"
       width="100%"
       height="100%"
       style="fill:#688593;fill-opacity:1" />
    <use
       id="use1385"
       inkscape:spray-origin="#circle1163"
       xlink:href="#circle1163"
       transform="matrix(1.0594576,0,0,1.0594576,-72.110361,-5.4512092)"
       x="0"
       y="0"
       width="100%"
       height="100%"
       style="fill:#688593;fill-opacity:1" />
    <use
       id="use1387"
       inkscape:spray-origin="#circle1163"
       xlink:href="#circle1163"
       transform="matrix(0.92399673,0,0,0.92399673,-6.0108054,54.036282)"
       x="0"
       y="0"
       width="100%"
       height="100%"
       style="fill:#688593;fill-opacity:1" />
    <use
       id="use1389"
       inkscape:spray-origin="#circle1163"
       xlink:href="#circle1163"
       transform="matrix(0.54282246,0,0,0.54282246,180.05619,230.30359)"
       x="0"
       y="0"
       width="100%"
       height="100%"
       style="fill:#688593;fill-opacity:1" />
    <use
       id="use1391"
       inkscape:spray-origin="#circle1163"
       xlink:href="#circle1163"
       transform="matrix(0.66778254,0,0,0.66778254,125.1362,180.55319)"
       x="0"
       y="0"
       width="100%"
       height="100%"
       style="fill:#688593;fill-opacity:1" />
    <use
       id="use1393"
       inkscape:spray-origin="#circle1163"
       xlink:href="#circle1163"
       transform="matrix(0.76256702,0,0,0.76256702,69.550117,134.18581)"
       x="0"
       y="0"
       width="100%"
       height="100%"
       style="fill:#688593;fill-opacity:1" />
    <use
       id="use1405"
       inkscape:spray-origin="#circle1163"
       xlink:href="#circle1163"
       transform="matrix(1.1194662,0,0,1.1194662,-35.343069,-36.01802)"
       x="0"
       y="0"
       width="100%"
       height="100%"
       style="fill:#688593;fill-opacity:1" />
    <use
       id="use1407"
       inkscape:spray-origin="#circle1163"
       xlink:href="#circle1163"
       transform="matrix(1.5880971,0,0,1.5880971,-267.72565,-252.87266)"
       x="0"
       y="0"
       width="100%"
       height="100%"
       style="fill:#688593;fill-opacity:1" />
    <use
       id="use1409"
       inkscape:spray-origin="#circle1163"
       xlink:href="#circle1163"
       transform="matrix(1.2079653,0,0,1.2079653,-83.423491,-83.733035)"
       x="0"
       y="0"
       width="100%"
       height="100%"
       style="fill:#688593;fill-opacity:1" />
    <use
       id="use1411"
       inkscape:spray-origin="#circle1163"
       xlink:href="#circle1163"
       transform="matrix(0.73988344,0,0,0.73988344,158.00731,125.64378)"
       x="0"
       y="0"
       width="100%"
       height="100%"
       style="fill:#688593;fill-opacity:1" />
    <use
       id="use1413"
       inkscape:spray-origin="#circle1163"
       xlink:href="#circle1163"
       transform="matrix(0.95899716,0,0,0.95899716,-23.331805,-16.37172)"
       x="0"
       y="0"
       width="100%"
       height="100%"
       style="fill:#688593;fill-opacity:1" />
    <use
       id="use1437"
       inkscape:spray-origin="#circle1163"
       xlink:href="#circle1163"
       transform="matrix(0.53678265,0,0,0.53678265,257.07122,180.1305)"
       x="0"
       y="0"
       width="100%"
       height="100%"
       style="fill:#688593;fill-opacity:1" />
    <use
       id="use1439"
       inkscape:spray-origin="#circle1163"
       xlink:href="#circle1163"
       transform="matrix(1.2429702,0,0,1.2429702,-97.328805,-148.01871)"
       x="0"
       y="0"
       width="100%"
       height="100%"
       style="fill:#688593;fill-opacity:1" />
    <use
       id="use1441"
       inkscape:spray-origin="#circle1163"
       xlink:href="#circle1163"
       transform="matrix(1.1443601,0,0,1.1443601,-46.67078,-100.02749)"
       x="0"
       y="0"
       width="100%"
       height="100%"
       style="fill:#688593;fill-opacity:1" />
    <use
       id="use1443"
       inkscape:spray-origin="#circle1163"
       xlink:href="#circle1163"
       transform="matrix(0.85723083,0,0,0.85723083,100.68859,31.181613)"
       x="0"
       y="0"
       width="100%"
       height="100%"
       style="fill:#688593;fill-opacity:1" />
    <circle
       cy="419.94287"
       cx="509.63531"
       id="use1487"
       style="opacity:1;vector-effect:none;fill:#688593;fill-opacity:1;stroke:none;stroke-width:0;stroke-linecap:butt;stroke-linejoin:round;stroke-miterlimit:4;stroke-dasharray:none;stroke-dashoffset:0;stroke-opacity:1;paint-order:markers stroke fill"
       r="2.3871973" />
    <circle
       cy="440.17493"
       cx="505.83597"
       id="use1489"
       style="opacity:1;vector-effect:none;fill:#688593;fill-opacity:1;stroke:none;stroke-width:0;stroke-linecap:butt;stroke-linejoin:round;stroke-miterlimit:4;stroke-dasharray:none;stroke-dashoffset:0;stroke-opacity:1;paint-order:markers stroke fill"
       r="1.6883653" />
    <circle
       cy="431.59399"
       cx="506.48178"
       id="use1491"
       style="opacity:1;vector-effect:none;fill:#688593;fill-opacity:1;stroke:none;stroke-width:0;stroke-linecap:butt;stroke-linejoin:round;stroke-miterlimit:4;stroke-dasharray:none;stroke-dashoffset:0;stroke-opacity:1;paint-order:markers stroke fill"
       r="0.65848416" />
    <circle
       cy="425.31854"
       cx="502.81024"
       id="use1493"
       style="opacity:1;vector-effect:none;fill:#688593;fill-opacity:1;stroke:none;stroke-width:0;stroke-linecap:butt;stroke-linejoin:round;stroke-miterlimit:4;stroke-dasharray:none;stroke-dashoffset:0;stroke-opacity:1;paint-order:markers stroke fill"
       r="1.6061513" />
    <circle
       cy="415.242"
       cx="512.2276"
       id="use1495"
       style="opacity:1;vector-effect:none;fill:#688593;fill-opacity:1;stroke:none;stroke-width:0;stroke-linecap:butt;stroke-linejoin:round;stroke-miterlimit:4;stroke-dasharray:none;stroke-dashoffset:0;stroke-opacity:1;paint-order:markers stroke fill"
       r="1.2284313" />
    <circle
       cy="422.83908"
       cx="501.5994"
       id="use1497"
       style="opacity:1;vector-effect:none;fill:#688593;fill-opacity:1;stroke:none;stroke-width:0;stroke-linecap:butt;stroke-linejoin:round;stroke-miterlimit:4;stroke-dasharray:none;stroke-dashoffset:0;stroke-opacity:1;paint-order:markers stroke fill"
       r="2.1770306" />
    <circle
       cy="468.54068"
       cx="477.97598"
       id="use1529"
       style="opacity:1;vector-effect:none;fill:#688593;fill-opacity:1;stroke:none;stroke-width:0;stroke-linecap:butt;stroke-linejoin:round;stroke-miterlimit:4;stroke-dasharray:none;stroke-dashoffset:0;stroke-opacity:1;paint-order:markers stroke fill"
       r="1.8512764" />
    <circle
       cy="479.73596"
       cx="475.7731"
       id="use1531"
       style="opacity:1;vector-effect:none;fill:#688593;fill-opacity:1;stroke:none;stroke-width:0;stroke-linecap:butt;stroke-linejoin:round;stroke-miterlimit:4;stroke-dasharray:none;stroke-dashoffset:0;stroke-opacity:1;paint-order:markers stroke fill"
       r="1.110339" />
    <circle
       cy="433.25726"
       cx="459.64148"
       id="use1533"
       style="opacity:1;vector-effect:none;fill:#688593;fill-opacity:1;stroke:none;stroke-width:0;stroke-linecap:butt;stroke-linejoin:round;stroke-miterlimit:4;stroke-dasharray:none;stroke-dashoffset:0;stroke-opacity:1;paint-order:markers stroke fill"
       r="2.2536504" />
    <circle
       cy="433.74661"
       cx="459.41034"
       id="use1535"
       style="opacity:1;vector-effect:none;fill:#688593;fill-opacity:1;stroke:none;stroke-width:0;stroke-linecap:butt;stroke-linejoin:round;stroke-miterlimit:4;stroke-dasharray:none;stroke-dashoffset:0;stroke-opacity:1;paint-order:markers stroke fill"
       r="0.87625057" />
    <circle
       cy="438.93826"
       cx="454.27826"
       id="use1537"
       style="opacity:1;vector-effect:none;fill:#688593;fill-opacity:1;stroke:none;stroke-width:0;stroke-linecap:butt;stroke-linejoin:round;stroke-miterlimit:4;stroke-dasharray:none;stroke-dashoffset:0;stroke-opacity:1;paint-order:markers stroke fill"
       r="2.173178" />
    <path
       sodipodi:nodetypes="csczcsczc"
       inkscape:connector-curvature="0"
       id="path1562"
       d="m 495.53655,442.29374 c -0.50311,0.45292 -0.42994,0.96686 0.023,1.46996 0.45294,0.50312 0.91787,0.7278 1.42096,0.27487 0.11515,-0.10379 0.38821,-0.4641 0.58834,-0.55147 0.20006,-0.0875 0.71573,-0.43261 0.92526,-0.62088 0.5031,-0.45293 0.65243,-1.07203 0.1995,-1.57513 -0.45293,-0.50311 -0.97915,-0.51403 -1.48225,-0.0611 -0.11515,0.10379 -0.48988,0.17501 -0.80209,0.49018 -0.31218,0.3152 -0.66319,0.38529 -0.87271,0.57357 z"
       style="opacity:1;vector-effect:none;fill:#688593;fill-opacity:1;stroke:none;stroke-width:0;stroke-linecap:butt;stroke-linejoin:round;stroke-miterlimit:4;stroke-dasharray:none;stroke-dashoffset:0;stroke-opacity:1;paint-order:markers stroke fill" />
    <use
       id="use1760"
       inkscape:spray-origin="#use1531"
       xlink:href="#use1531"
       transform="matrix(0.90339322,0,0,0.90339322,63.744987,34.22143)"
       x="0"
       y="0"
       width="100%"
       height="100%" />
    <use
       id="use1762"
       inkscape:spray-origin="#use1531"
       xlink:href="#use1531"
       transform="matrix(0.73220136,0,0,0.73220136,137.99083,105.7229)"
       x="0"
       y="0"
       width="100%"
       height="100%" />
    <use
       id="use1764"
       inkscape:spray-origin="#use1531"
       xlink:href="#use1531"
       transform="matrix(0.46939878,0,0,0.46939878,259.67935,219.94362)"
       x="0"
       y="0"
       width="100%"
       height="100%" />
    <use
       id="use1766"
       inkscape:spray-origin="#use1531"
       xlink:href="#use1531"
       transform="matrix(1.5152868,0,0,1.5152868,-235.638,-284.44126)"
       x="0"
       y="0"
       width="100%"
       height="100%" />
    <use
       id="use1768"
       inkscape:spray-origin="#use1531"
       xlink:href="#use1531"
       transform="matrix(0.50761758,0,0,0.50761758,245.346,190.01931)"
       x="0"
       y="0"
       width="100%"
       height="100%" />
    <use
       id="use1784"
       inkscape:spray-origin="#circle1163"
       xlink:href="#use1405"
       transform="matrix(0.4609474,0,0,0.4609474,263.11245,258.50388)"
       x="0"
       y="0"
       width="100%"
       height="100%" />
    <use
       id="use1786"
       inkscape:spray-origin="#circle1163"
       xlink:href="#use1405"
       transform="matrix(0.95639393,0,0,0.95639393,12.53507,29.830254)"
       x="0"
       y="0"
       width="100%"
       height="100%" />
    <use
       id="use1788"
       inkscape:spray-origin="#circle1163"
       xlink:href="#use1405"
       transform="matrix(0.55185335,0,0,0.55185335,216.05605,214.26267)"
       x="0"
       y="0"
       width="100%"
       height="100%" />
    <text
       xml:space="preserve"
       style="font-style:normal;font-variant:normal;font-weight:normal;font-stretch:normal;font-size:3.23214936px;line-height:1.25;font-family:sans-serif;-inkscape-font-specification:sans-serif;text-align:center;letter-spacing:0.34567913px;word-spacing:0px;text-anchor:middle;fill:#859ea9;fill-opacity:1;stroke:none;stroke-width:0.08080373;"
       x="503.49051"
       y="479.44916"
       id="text2247"><tspan
         sodipodi:role="line"
         id="tspan2245"
         x="503.66336"
         y="479.44916"
         style="font-style:normal;font-variant:normal;font-weight:normal;font-stretch:normal;line-height:1.25;font-family:sans-serif;-inkscape-font-specification:sans-serif;text-align:center;letter-spacing:0.34567913px;text-anchor:middle;fill:#859ea9;stroke-width:0.08080373;fill-opacity:1;">The</tspan><tspan
         sodipodi:role="line"
         x="503.66336"
         y="483.48935"
         style="font-style:normal;font-variant:normal;font-weight:normal;font-stretch:normal;line-height:1.25;font-family:sans-serif;-inkscape-font-specification:sans-serif;text-align:center;letter-spacing:0.34567913px;text-anchor:middle;fill:#859ea9;stroke-width:0.08080373;fill-opacity:1;"
         id="tspan2249">Devil's</tspan><tspan
         sodipodi:role="line"
         x="503.66336"
         y="487.52954"
         style="font-style:normal;font-variant:normal;font-weight:normal;font-stretch:normal;line-height:1.25;font-family:sans-serif;-inkscape-font-specification:sans-serif;text-align:center;letter-spacing:0.34567913px;text-anchor:middle;fill:#859ea9;stroke-width:0.08080373;fill-opacity:1;"
         id="tspan2251">Lies</tspan></text>
    <g
       aria-label="Sea  of  Unbelief"
       style="font-style:normal;font-variant:normal;font-weight:normal;font-stretch:normal;font-size:3.54036021px;line-height:1.25;font-family:'MV Boli';-inkscape-font-specification:'MV Boli';text-align:center;letter-spacing:0px;word-spacing:0px;text-anchor:middle;fill:#ffffff;fill-opacity:1;stroke:none;stroke-width:0.08850899"
       id="text2255"
       transform="translate(73.019377,7.3418529)">
      <path
         d="m 448.79264,424.29675 q 0.0588,0.0207 0.11928,0.0484 0.0622,0.0277 0.12792,0.0536 0.0657,0.0242 0.13656,0.0415 0.0726,0.0173 0.15386,0.0173 0.0951,0 0.19188,-0.0225 0.0968,-0.0225 0.18843,-0.0657 0.0933,-0.0449 0.17806,-0.10718 0.0847,-0.064 0.15558,-0.14693 0.0778,-0.0882 0.12965,-0.15904 0.0519,-0.0726 0.083,-0.12793 0.0328,-0.057 0.0467,-0.0968 0.0138,-0.0415 0.0138,-0.0709 0,-0.0432 -0.0294,-0.0743 -0.0294,-0.0328 -0.0795,-0.0536 -0.0484,-0.0208 -0.11063,-0.0294 -0.0622,-0.0104 -0.12965,-0.0104 -0.0398,0 -0.0933,0.003 -0.0536,0.002 -0.10891,0.005 -0.0553,0.002 -0.10718,0.003 -0.0519,0.002 -0.0899,0.002 -0.0571,0 -0.11928,-0.0121 -0.0605,-0.0138 -0.11928,-0.0432 -0.0588,-0.0294 -0.10891,-0.0795 -0.0501,-0.0501 -0.083,-0.12447 -0.0104,-0.0242 -0.019,-0.057 -0.009,-0.0328 -0.009,-0.0709 0,-0.0415 0.005,-0.0778 0.007,-0.038 0.0156,-0.0726 0.0242,-0.0864 0.0795,-0.1746 0.0571,-0.0899 0.13484,-0.17459 0.0795,-0.0847 0.17114,-0.16423 0.0934,-0.0795 0.19015,-0.14867 0.0985,-0.0709 0.19189,-0.12619 0.0951,-0.0571 0.17632,-0.0968 0.1141,-0.0553 0.23165,-0.0795 0.11928,-0.0259 0.2351,-0.0259 0.0691,0 0.13138,0.019 0.0622,0.0173 0.10891,0.0519 0.0484,0.0346 0.0761,0.0864 0.0277,0.0501 0.0277,0.11583 0,0.038 -0.009,0.064 -0.009,0.0259 -0.0225,0.0432 -0.0138,0.0156 -0.0311,0.0225 -0.0156,0.007 -0.0328,0.007 -0.0467,0 -0.0864,-0.0104 -0.038,-0.0104 -0.0743,-0.0225 -0.0363,-0.0138 -0.0726,-0.0242 -0.0363,-0.0121 -0.0795,-0.0121 -0.12792,0 -0.26103,0.0519 -0.13138,0.0501 -0.25758,0.12965 -0.12446,0.0778 -0.23683,0.1746 -0.11063,0.0968 -0.1988,0.18842 -0.0467,0.0484 -0.0691,0.0968 -0.0207,0.0484 -0.0207,0.0916 0,0.064 0.0553,0.10026 0.0553,0.0363 0.13484,0.0363 0.0467,0 0.10545,-0.002 0.0588,-0.002 0.11928,-0.003 0.0622,-0.003 0.11928,-0.005 0.0588,-0.003 0.10372,-0.003 0.10718,0 0.20571,0.0311 0.0985,0.0294 0.1746,0.0882 0.0761,0.0588 0.12101,0.14694 0.0467,0.0864 0.0467,0.19879 0,0.0691 -0.0207,0.14003 -0.0208,0.0709 -0.0571,0.14348 -0.0363,0.0709 -0.083,0.14175 -0.0467,0.0692 -0.0985,0.13657 -0.0934,0.12101 -0.20917,0.22819 -0.1141,0.10718 -0.24375,0.1867 -0.12965,0.0795 -0.27486,0.12619 -0.14348,0.0467 -0.29561,0.0467 -0.0657,0 -0.13483,-0.0121 -0.0691,-0.0121 -0.13657,-0.0363 -0.0674,-0.0225 -0.12792,-0.0571 -0.0588,-0.0363 -0.10373,-0.0812 -0.0449,-0.045 -0.0726,-0.0985 -0.0259,-0.0553 -0.0259,-0.11928 0,-0.0311 0.009,-0.0588 0.0104,-0.0294 0.0484,-0.0294 z m 0.87817,-2.13148 z"
         style="font-style:normal;font-variant:normal;font-weight:normal;font-stretch:normal;font-family:'MV Boli';-inkscape-font-specification:'MV Boli';text-align:center;text-anchor:middle;fill:#ffffff;fill-opacity:1;stroke-width:0.08850899"
         id="path2682"
         inkscape:connector-curvature="0" />
      <path
         d="m 450.9172,424.0288 q 0,-0.0743 0.0398,-0.12619 0.0398,-0.0519 0.10545,-0.0691 0.019,-0.038 0.0588,-0.10199 0.0398,-0.0657 0.0985,-0.14176 0.0588,-0.0761 0.13311,-0.15212 0.0761,-0.0778 0.16595,-0.14003 0.0916,-0.064 0.19534,-0.10372 0.10545,-0.0398 0.22301,-0.0398 0.10026,0 0.17459,0.0242 0.0743,0.0242 0.12274,0.0674 0.0484,0.0432 0.0726,0.10372 0.0242,0.0588 0.0242,0.12793 0,0.0588 -0.0156,0.11236 -0.0242,0.0968 -0.0899,0.16941 -0.0657,0.0726 -0.15559,0.12793 -0.0882,0.0536 -0.19361,0.0899 -0.10372,0.0363 -0.20917,0.0605 -0.10372,0.0242 -0.20053,0.038 -0.0968,0.0121 -0.16768,0.019 -0.0156,0.0311 -0.0277,0.0795 -0.0104,0.0467 -0.0104,0.0916 0,0.10027 0.0795,0.15558 0.0795,0.0553 0.21954,0.0553 0.0813,0 0.15558,-0.0173 0.0743,-0.019 0.14003,-0.0467 0.0674,-0.0294 0.12619,-0.0622 0.0588,-0.0346 0.10718,-0.0674 0.0622,-0.0415 0.11755,-0.0691 0.0571,-0.0294 0.10027,-0.0294 0.0432,0 0.0553,0.0225 0.0121,0.0207 0.0121,0.0449 0,0.0138 -0.002,0.0277 0,0.0121 -0.002,0.0208 -0.009,0.0449 -0.0346,0.0899 -0.0259,0.0449 -0.0657,0.0778 -0.17978,0.14175 -0.36994,0.20226 -0.18842,0.0605 -0.40278,0.0605 -0.0415,0 -0.0985,-0.005 -0.0553,-0.005 -0.11582,-0.0207 -0.0605,-0.0156 -0.11928,-0.045 -0.0588,-0.0294 -0.10545,-0.0778 -0.0449,-0.0484 -0.0743,-0.11928 -0.0277,-0.0709 -0.0277,-0.17114 0,-0.0813 0.0225,-0.18151 -0.0225,-0.003 -0.0432,-0.0225 -0.019,-0.0208 -0.019,-0.0588 z m 1.08216,-0.47885 q 0.003,-0.009 0.003,-0.0156 0,-0.007 0,-0.0155 0,-0.0467 -0.0346,-0.0692 -0.0346,-0.0242 -0.083,-0.0242 -0.0761,0 -0.15039,0.0398 -0.0726,0.0398 -0.1383,0.10026 -0.064,0.0588 -0.11409,0.12792 -0.0501,0.0674 -0.0778,0.12274 0.12446,-0.0104 0.22819,-0.0328 0.10372,-0.0242 0.17978,-0.0588 0.0778,-0.0363 0.12447,-0.0795 0.0484,-0.0449 0.0622,-0.0951 z m -0.20053,-0.46847 z"
         style="font-style:normal;font-variant:normal;font-weight:normal;font-stretch:normal;font-family:'MV Boli';-inkscape-font-specification:'MV Boli';text-align:center;text-anchor:middle;fill:#ffffff;fill-opacity:1;stroke-width:0.08850899"
         id="path2684"
         inkscape:connector-curvature="0" />
      <path
         d="m 453.53098,424.62174 q 0,-0.0501 0.0121,-0.11928 0.0121,-0.0709 0.0121,-0.1746 -0.0571,0.0415 -0.12619,0.0985 -0.0691,0.0571 -0.14349,0.10891 -0.0743,0.0519 -0.14866,0.0882 -0.0726,0.0346 -0.13657,0.0346 -0.0519,0 -0.0985,-0.0156 -0.0467,-0.0156 -0.0795,-0.0415 -0.0916,-0.0726 -0.13311,-0.14521 -0.0398,-0.0726 -0.0398,-0.16941 0,-0.0432 0.007,-0.0899 0.009,-0.0467 0.0242,-0.10718 0.0657,-0.27313 0.22473,-0.50477 0.16077,-0.23338 0.3976,-0.3976 0.0916,-0.064 0.18324,-0.0813 0.0916,-0.019 0.18152,-0.019 0.0398,0 0.0882,0.005 0.0501,0.005 0.0899,0.0104 0.0398,-0.009 0.064,-0.0121 0.0259,-0.003 0.0536,-0.003 0.0519,0 0.0864,0.0138 0.0346,0.0138 0.0553,0.038 0.0208,0.0225 0.0294,0.0536 0.0104,0.0294 0.0104,0.0622 0,0.0449 -0.0138,0.0864 -0.0138,0.0398 -0.0276,0.0813 l -0.22819,0.91102 q -0.007,0.0743 -0.0121,0.13657 -0.005,0.0622 -0.0208,0.11582 -0.005,0.0156 -0.0138,0.0398 -0.007,0.0225 -0.0242,0.0449 -0.0173,0.0207 -0.0432,0.0363 -0.0259,0.0156 -0.0674,0.0156 -0.0536,0 -0.0864,-0.007 -0.0311,-0.007 -0.0484,-0.019 -0.0173,-0.0138 -0.0225,-0.0311 -0.005,-0.019 -0.005,-0.0432 z m -0.57393,-0.52206 q -0.007,0.0242 -0.0156,0.0691 -0.007,0.045 -0.007,0.0899 0,0.0467 0.0138,0.0847 0.0138,0.0363 0.0605,0.0363 0.0726,0 0.13484,-0.0311 0.064,-0.0328 0.11928,-0.0778 0.0743,-0.0605 0.1504,-0.13484 0.0778,-0.0761 0.14521,-0.15904 0.0691,-0.083 0.12101,-0.16941 0.0536,-0.0882 0.0778,-0.1746 0.0138,-0.0501 0.0225,-0.11582 0.0104,-0.0657 0.0104,-0.11755 0,-0.0225 -0.0104,-0.0432 -0.0104,-0.0225 -0.0398,-0.0225 -0.0847,0 -0.17114,0.0328 -0.0847,0.0328 -0.16423,0.0882 -0.0795,0.0553 -0.15212,0.13139 -0.0709,0.0743 -0.12965,0.16076 -0.0588,0.0847 -0.102,0.17633 -0.0415,0.0899 -0.064,0.17633 z"
         style="font-style:normal;font-variant:normal;font-weight:normal;font-stretch:normal;font-family:'MV Boli';-inkscape-font-specification:'MV Boli';text-align:center;text-anchor:middle;fill:#1b1b1b;fill-opacity:1;stroke-width:0.08850899"
         id="path2686"
         inkscape:connector-curvature="0" />
      <path
         d="m 449.96987,428.45944 q 0.0259,-0.10545 0.0795,-0.223 0.0553,-0.11928 0.14349,-0.24029 0.0882,-0.12101 0.2109,-0.23683 0.12446,-0.11583 0.28696,-0.21609 0.0259,-0.0156 0.0795,-0.0328 0.0536,-0.019 0.11063,-0.0225 0.0674,-0.0726 0.18152,-0.0726 0.13484,0 0.22646,0.0691 0.0934,0.0674 0.15385,0.18497 0.019,0.038 0.0346,0.0743 0.0173,0.0363 0.0277,0.0778 0.0121,0.0398 0.019,0.0864 0.007,0.0467 0.007,0.10545 0,0.13657 -0.0432,0.27832 -0.0432,0.14176 -0.12274,0.27659 -0.0795,0.13484 -0.19362,0.25931 -0.11236,0.12274 -0.25066,0.22127 -0.0933,0.0674 -0.20744,0.10372 -0.11236,0.038 -0.25239,0.038 -0.13311,0 -0.23164,-0.0363 -0.0968,-0.0346 -0.1625,-0.10026 -0.064,-0.0657 -0.0968,-0.15731 -0.0311,-0.0916 -0.0311,-0.20399 0,-0.10891 0.0311,-0.23337 z m 0.28697,0.0225 q -0.0104,0.0398 -0.0156,0.0761 -0.003,0.0346 -0.003,0.0674 0,0.0571 0.0138,0.10718 0.0156,0.0484 0.0484,0.0847 0.0328,0.0346 0.0813,0.0553 0.0501,0.019 0.12101,0.019 0.13138,0 0.24375,-0.0657 0.11409,-0.0674 0.20225,-0.16768 0.0882,-0.10027 0.14694,-0.21436 0.0605,-0.11582 0.0847,-0.21263 0.0156,-0.0605 0.0259,-0.11409 0.0121,-0.0536 0.0121,-0.0985 0,-0.0449 -0.0173,-0.083 -0.0156,-0.0398 -0.0415,-0.0882 -0.0155,-0.0294 -0.0311,-0.0605 -0.0156,-0.0329 -0.0277,-0.064 -0.0138,0.0242 -0.0294,0.0432 -0.0156,0.0173 -0.0467,0.0328 -0.0311,0.0138 -0.0847,0.0259 -0.0536,0.0121 -0.14002,0.0207 -0.0571,0.019 -0.11583,0.0588 -0.0588,0.0398 -0.11582,0.0933 -0.0553,0.0536 -0.10718,0.11582 -0.0501,0.0622 -0.0916,0.12792 -0.0398,0.064 -0.0709,0.1262 -0.0294,0.0622 -0.0415,0.11409 z"
         style="font-style:normal;font-variant:normal;font-weight:normal;font-stretch:normal;font-family:'MV Boli';-inkscape-font-specification:'MV Boli';text-align:center;text-anchor:middle;fill:#ffffff;fill-opacity:1;stroke-width:0.08850899"
         id="path2688"
         inkscape:connector-curvature="0" />
      <path
         d="m 452.15148,429.28057 q -0.0432,0 -0.0778,-0.0173 -0.0328,-0.0156 -0.057,-0.045 -0.0225,-0.0277 -0.0363,-0.064 -0.0121,-0.0363 -0.0121,-0.0778 0,-0.0294 0.007,-0.064 0.007,-0.0363 0.0207,-0.0864 0.005,-0.0225 0.0156,-0.0674 0.0104,-0.0449 0.0207,-0.10199 0.0104,-0.0571 0.0208,-0.12101 0.0121,-0.064 0.0207,-0.12446 0.0104,-0.0605 0.0156,-0.11237 0.005,-0.0519 0.005,-0.0864 0,-0.0225 -0.002,-0.0294 -0.003,-0.0259 -0.038,-0.0346 -0.0328,-0.0104 -0.0726,-0.0207 -0.038,-0.0121 -0.0709,-0.0363 -0.0311,-0.0259 -0.0311,-0.083 0,-0.0467 0.0207,-0.0882 0.0225,-0.0415 0.0571,-0.0588 0.0398,-0.019 0.0882,-0.0207 0.0501,-0.002 0.0985,-0.0104 0.0277,-0.003 0.038,-0.0328 0.0121,-0.0294 0.019,-0.057 0.0207,-0.0795 0.0449,-0.17115 0.0242,-0.0933 0.0553,-0.18842 0.0328,-0.0968 0.0709,-0.18843 0.0398,-0.0916 0.0882,-0.16941 0.0778,-0.10545 0.16595,-0.19707 0.0899,-0.0916 0.19016,-0.15904 0.10199,-0.0691 0.21436,-0.10718 0.11409,-0.0398 0.24201,-0.0398 0.15386,0 0.25066,0.0519 0.0968,0.0519 0.15732,0.15558 0.0138,0.0242 0.019,0.0501 0.005,0.0242 0.005,0.0501 0,0.0467 -0.0138,0.0882 -0.0121,0.0398 -0.0346,0.0709 -0.0225,0.0294 -0.0536,0.0467 -0.0294,0.0173 -0.0622,0.0173 -0.0467,0 -0.0726,-0.019 -0.0259,-0.019 -0.0432,-0.0467 -0.0156,-0.0277 -0.0259,-0.0605 -0.009,-0.0346 -0.0208,-0.0622 -0.0104,-0.0277 -0.0294,-0.0467 -0.019,-0.019 -0.0536,-0.019 -0.0346,0 -0.0795,0.009 -0.0432,0.009 -0.083,0.0294 -0.10545,0.0553 -0.19534,0.12447 -0.0899,0.0674 -0.16769,0.17287 -0.0761,0.10545 -0.14175,0.25757 -0.064,0.15213 -0.11928,0.37513 -0.002,0.003 -0.003,0.009 -0.002,0.005 -0.002,0.007 0,0.003 0.0138,0.003 0.0519,0 0.0985,-0.005 0.0484,-0.007 0.0951,-0.0138 0.0467,-0.009 0.0933,-0.0138 0.0484,-0.007 0.10199,-0.007 0.0398,0 0.0743,0.003 0.0346,0.003 0.0588,0.0156 0.0259,0.0104 0.0398,0.0311 0.0156,0.0207 0.0156,0.0553 0,0.0207 -0.007,0.0519 -0.005,0.0294 -0.019,0.0588 -0.0121,0.0277 -0.0328,0.0501 -0.019,0.0225 -0.0484,0.0277 -0.0519,0.0104 -0.10718,0.0173 -0.0553,0.005 -0.12101,0.0138 -0.0657,0.007 -0.14521,0.0225 -0.0795,0.0138 -0.17805,0.0415 -0.0311,0.11755 -0.0484,0.23337 -0.0155,0.1141 -0.0277,0.22819 -0.0121,0.11409 -0.0276,0.22991 -0.0138,0.1141 -0.0415,0.22992 -0.005,0.0225 -0.019,0.045 -0.0121,0.0225 -0.0311,0.0398 -0.0173,0.019 -0.0415,0.0294 -0.0225,0.0121 -0.0484,0.0121 z"
         style="font-style:normal;font-variant:normal;font-weight:normal;font-stretch:normal;font-family:'MV Boli';-inkscape-font-specification:'MV Boli';text-align:center;text-anchor:middle;fill:#ffffff;fill-opacity:1;stroke-width:0.08850899"
         id="path2690"
         inkscape:connector-curvature="0" />
      <path
         d="m 445.28512,432.71548 q 0.038,-0.1746 0.0813,-0.31117 0.0449,-0.13829 0.0882,-0.25585 0.0432,-0.11928 0.0813,-0.22645 0.0398,-0.10891 0.0692,-0.22473 l 0.0207,-0.083 q 0.007,-0.0311 0.0121,-0.0778 0.005,-0.0467 0.0104,-0.0968 0.007,-0.0519 0.0173,-0.10199 0.0104,-0.0501 0.0294,-0.0899 0.0207,-0.0398 0.0519,-0.064 0.0311,-0.0259 0.0795,-0.0259 0.0536,0 0.0899,0.019 0.038,0.019 0.0605,0.0501 0.0225,0.0311 0.0328,0.0726 0.0104,0.0398 0.0104,0.083 0,0.0363 -0.005,0.0726 -0.003,0.0363 -0.0121,0.0674 -0.019,0.0778 -0.0622,0.18151 -0.0432,0.10372 -0.0951,0.22992 -0.0519,0.12446 -0.10545,0.2714 -0.0536,0.14521 -0.0951,0.30771 -0.0242,0.0916 -0.0432,0.20053 -0.0173,0.1089 -0.0173,0.19707 0,0.0709 0.0121,0.13484 0.0121,0.0622 0.0432,0.11063 0.0311,0.0467 0.083,0.0743 0.0536,0.0276 0.13484,0.0276 0.0622,0 0.12792,-0.0104 0.0674,-0.0104 0.15904,-0.0501 0.13484,-0.0605 0.25412,-0.15558 0.12101,-0.0968 0.223,-0.21955 0.10372,-0.12273 0.19015,-0.26449 0.0882,-0.14175 0.15904,-0.29387 0.0709,-0.15213 0.12447,-0.30771 0.0553,-0.15558 0.0933,-0.30598 0.0156,-0.064 0.0242,-0.11928 0.009,-0.0571 0.0121,-0.11582 0.005,-0.0588 0.007,-0.1262 0.003,-0.0674 0.0104,-0.15385 0.005,-0.0691 0.038,-0.11928 0.0346,-0.0519 0.10372,-0.0519 0.0432,0 0.0743,0.0346 0.0328,0.0346 0.0536,0.0864 0.0207,0.0501 0.0311,0.10718 0.0104,0.057 0.0104,0.10199 0,0.0864 -0.0173,0.1867 -0.0173,0.10026 -0.0415,0.19188 -0.0501,0.1988 -0.12101,0.39933 -0.0691,0.20053 -0.16595,0.39242 -0.0968,0.19188 -0.22646,0.37339 -0.12793,0.17979 -0.29561,0.3371 -0.083,0.0778 -0.17978,0.15385 -0.0968,0.0743 -0.20226,0.13484 -0.10545,0.0605 -0.21609,0.0968 -0.11063,0.038 -0.21954,0.038 -0.15731,0 -0.27313,-0.0449 -0.11583,-0.0432 -0.19362,-0.12274 -0.0761,-0.0795 -0.11409,-0.18842 -0.038,-0.11064 -0.038,-0.24202 0,-0.0622 0.0104,-0.13657 0.0104,-0.0761 0.0259,-0.14866 z"
         style="font-style:normal;font-variant:normal;font-weight:normal;font-stretch:normal;font-family:'MV Boli';-inkscape-font-specification:'MV Boli';text-align:center;text-anchor:middle;fill:#ffffff;fill-opacity:1;stroke-width:0.08850899"
         id="path2692"
         inkscape:connector-curvature="0" />
      <path
         d="m 448.79436,432.12772 q -0.0605,0 -0.12965,0.0294 -0.0692,0.0277 -0.14348,0.0761 -0.0743,0.0484 -0.15212,0.11064 -0.0761,0.0605 -0.1504,0.12619 -0.038,0.0328 -0.0726,0.0605 -0.0346,0.0259 -0.0691,0.0398 -0.0242,0.0398 -0.0519,0.10545 -0.0259,0.064 -0.0519,0.14175 -0.0259,0.0761 -0.0501,0.15731 -0.0225,0.0795 -0.038,0.14867 -0.009,0.0363 -0.0138,0.0709 -0.005,0.0346 -0.0121,0.0743 -0.007,0.038 -0.0173,0.083 -0.009,0.0449 -0.0225,0.10027 -0.009,0.0328 -0.0277,0.0536 -0.019,0.019 -0.0398,0.0294 -0.0207,0.0104 -0.0398,0.0121 -0.019,0.003 -0.0294,0.003 -0.0657,0 -0.10718,-0.0311 -0.0415,-0.0311 -0.0415,-0.12101 0,-0.0242 0.002,-0.0501 0.002,-0.0277 0.0104,-0.0605 0.038,-0.16422 0.0726,-0.2956 0.0363,-0.13138 0.0726,-0.24375 0.0363,-0.11236 0.0726,-0.2109 0.038,-0.10026 0.0761,-0.20053 0.0398,-0.10199 0.0812,-0.20917 0.0432,-0.10891 0.0916,-0.24029 0.0104,-0.0294 0.0536,-0.0484 0.0449,-0.0207 0.0951,-0.0207 0.0657,0 0.10718,0.0294 0.0432,0.0294 0.0432,0.0847 0,0.005 -0.003,0.019 -0.003,0.0138 -0.0104,0.0294 l -0.0761,0.17979 q 0.0726,-0.0571 0.15039,-0.1141 0.0795,-0.0571 0.1625,-0.10199 0.083,-0.0467 0.16595,-0.0743 0.0847,-0.0294 0.16596,-0.0294 0.16595,0 0.2593,0.0899 0.0934,0.0882 0.0934,0.27486 0,0.10718 -0.038,0.24375 -0.0363,0.13656 -0.0934,0.29387 -0.0553,0.15559 -0.12101,0.32846 -0.064,0.17114 -0.11928,0.34919 -0.0156,0.0484 -0.0328,0.0813 -0.0156,0.0328 -0.038,0.0519 -0.0225,0.0207 -0.0536,0.0294 -0.0294,0.009 -0.0726,0.009 -0.0674,0 -0.0933,-0.0259 -0.0259,-0.0242 -0.0259,-0.0795 0,-0.0484 0.0138,-0.11755 0.0156,-0.0709 0.0415,-0.15385 0.0277,-0.0847 0.0622,-0.17979 0.0363,-0.0951 0.0778,-0.19361 0.0328,-0.0795 0.064,-0.15904 0.0328,-0.0795 0.057,-0.15385 0.0259,-0.0743 0.0415,-0.14176 0.0156,-0.0674 0.0156,-0.12446 0,-0.0536 -0.0242,-0.0933 -0.0225,-0.0415 -0.0864,-0.0415 z"
         style="font-style:normal;font-variant:normal;font-weight:normal;font-stretch:normal;font-family:'MV Boli';-inkscape-font-specification:'MV Boli';text-align:center;text-anchor:middle;fill:#ffffff;fill-opacity:1;stroke-width:0.08850899"
         id="path2694"
         inkscape:connector-curvature="0" />
      <path
         d="m 449.62068,432.97997 q 0.0346,-0.14003 0.0795,-0.30425 0.0449,-0.16596 0.0933,-0.3371 0.0484,-0.17287 0.0951,-0.34228 0.0484,-0.16941 0.0882,-0.31981 0.0398,-0.15039 0.0674,-0.2714 0.0294,-0.12101 0.0398,-0.19534 l 0.019,-0.14003 q 0.005,-0.0156 0.0104,-0.0346 0.007,-0.019 0.019,-0.0346 0.0121,-0.0173 0.0311,-0.0294 0.0207,-0.0121 0.0501,-0.0121 0.0536,0 0.0899,0.019 0.0363,0.019 0.0571,0.0519 0.0225,0.0311 0.0311,0.0726 0.009,0.0415 0.009,0.0864 0,0.045 -0.007,0.0916 -0.007,0.0449 -0.0155,0.0813 -0.0571,0.23683 -0.13139,0.47885 -0.0726,0.24029 -0.13138,0.48403 0.0674,-0.064 0.14521,-0.12101 0.0778,-0.0588 0.1625,-0.10199 0.0864,-0.0449 0.17633,-0.0709 0.0899,-0.0259 0.17978,-0.0259 0.0951,0 0.16423,0.0277 0.0691,0.0277 0.11409,0.0761 0.045,0.0467 0.0657,0.11237 0.0225,0.0657 0.0225,0.14175 0,0.0363 -0.005,0.0761 -0.003,0.038 -0.0121,0.0743 -0.045,0.17978 -0.12793,0.32154 -0.0812,0.14175 -0.18669,0.25411 -0.10373,0.11064 -0.22646,0.19707 -0.12101,0.0847 -0.24548,0.15213 -0.0813,0.0432 -0.15731,0.0674 -0.0743,0.0225 -0.14694,0.0225 -0.0709,0 -0.1089,-0.0138 -0.0363,-0.0156 -0.0657,-0.045 -0.009,0.0173 -0.0225,0.0363 -0.0121,0.019 -0.0311,0.0363 -0.0173,0.0156 -0.0432,0.0259 -0.0242,0.0104 -0.0553,0.0104 -0.0985,0 -0.14002,-0.0484 -0.0415,-0.0501 -0.0415,-0.13311 0,-0.0294 0.003,-0.0588 0.005,-0.0311 0.0138,-0.0605 z m 1.09945,-0.70358 q -0.0813,0 -0.17806,0.0415 -0.0951,0.0415 -0.19188,0.10372 -0.0968,0.0605 -0.1867,0.13138 -0.0899,0.0692 -0.15904,0.12446 -0.0208,0.0709 -0.0415,0.13657 -0.0207,0.0657 -0.0415,0.13311 -0.019,0.0674 -0.0363,0.1383 -0.0156,0.0709 -0.0277,0.15039 l -0.0104,0.0674 0.0104,0.0311 q 0.0363,-0.0207 0.0657,-0.0311 0.0311,-0.0104 0.0588,-0.0173 0.0294,-0.009 0.0605,-0.0173 0.0311,-0.009 0.0691,-0.0242 0.2714,-0.1089 0.45464,-0.29214 0.18497,-0.18325 0.25239,-0.45119 0.009,-0.038 0.0138,-0.0674 0.005,-0.0294 0.005,-0.0536 0,-0.0519 -0.0277,-0.0778 -0.0277,-0.0259 -0.0899,-0.0259 z m -0.10373,-0.34401 z"
         style="font-style:normal;font-variant:normal;font-weight:normal;font-stretch:normal;font-family:'MV Boli';-inkscape-font-specification:'MV Boli';text-align:center;text-anchor:middle;fill:#ffffff;fill-opacity:1;stroke-width:0.08850899"
         id="path2696"
         inkscape:connector-curvature="0" />
      <path
         d="m 451.39432,432.8797 q 0,-0.0743 0.0398,-0.12619 0.0398,-0.0519 0.10545,-0.0691 0.019,-0.038 0.0588,-0.10199 0.0398,-0.0657 0.0985,-0.14176 0.0588,-0.0761 0.13311,-0.15212 0.0761,-0.0778 0.16595,-0.14003 0.0916,-0.064 0.19534,-0.10372 0.10545,-0.0398 0.223,-0.0398 0.10027,0 0.1746,0.0242 0.0743,0.0242 0.12274,0.0674 0.0484,0.0432 0.0726,0.10373 0.0242,0.0588 0.0242,0.12792 0,0.0588 -0.0156,0.11236 -0.0242,0.0968 -0.0899,0.16942 -0.0657,0.0726 -0.15559,0.12792 -0.0882,0.0536 -0.19361,0.0899 -0.10372,0.0363 -0.20917,0.0605 -0.10372,0.0242 -0.20053,0.038 -0.0968,0.0121 -0.16768,0.019 -0.0156,0.0311 -0.0277,0.0795 -0.0104,0.0467 -0.0104,0.0916 0,0.10027 0.0795,0.15558 0.0795,0.0553 0.21954,0.0553 0.0813,0 0.15558,-0.0173 0.0743,-0.019 0.14003,-0.0467 0.0674,-0.0294 0.12619,-0.0622 0.0588,-0.0346 0.10718,-0.0674 0.0622,-0.0415 0.11755,-0.0692 0.0571,-0.0294 0.10026,-0.0294 0.0432,0 0.0553,0.0225 0.0121,0.0207 0.0121,0.0449 0,0.0138 -0.002,0.0277 0,0.0121 -0.002,0.0208 -0.009,0.0449 -0.0346,0.0899 -0.0259,0.0449 -0.0657,0.0778 -0.17978,0.14175 -0.36994,0.20226 -0.18843,0.0605 -0.40278,0.0605 -0.0415,0 -0.0985,-0.005 -0.0553,-0.005 -0.11582,-0.0207 -0.0605,-0.0156 -0.11928,-0.0449 -0.0588,-0.0294 -0.10545,-0.0778 -0.0449,-0.0484 -0.0743,-0.11928 -0.0277,-0.0709 -0.0277,-0.17114 0,-0.0813 0.0225,-0.18151 -0.0225,-0.003 -0.0432,-0.0225 -0.019,-0.0208 -0.019,-0.0588 z m 1.08216,-0.47885 q 0.003,-0.009 0.003,-0.0156 0,-0.007 0,-0.0156 0,-0.0467 -0.0346,-0.0691 -0.0346,-0.0242 -0.083,-0.0242 -0.0761,0 -0.15039,0.0398 -0.0726,0.0398 -0.1383,0.10026 -0.064,0.0588 -0.11409,0.12792 -0.0501,0.0674 -0.0778,0.12274 0.12446,-0.0104 0.22818,-0.0328 0.10373,-0.0242 0.17979,-0.0588 0.0778,-0.0363 0.12446,-0.0795 0.0484,-0.0449 0.0622,-0.0951 z m -0.20053,-0.46847 z"
         style="font-style:normal;font-variant:normal;font-weight:normal;font-stretch:normal;font-family:'MV Boli';-inkscape-font-specification:'MV Boli';text-align:center;text-anchor:middle;fill:#ffffff;fill-opacity:1;stroke-width:0.08850899"
         id="path2698"
         inkscape:connector-curvature="0" />
      <path
         d="m 453.68137,431.30486 q 0.005,-0.0588 0.0138,-0.12792 0.009,-0.0691 0.0277,-0.12792 0.019,-0.0588 0.0501,-0.0968 0.0328,-0.0398 0.083,-0.0398 0.0277,0 0.0605,0.0104 0.0346,0.0104 0.064,0.0294 0.0311,0.0173 0.0519,0.0432 0.0207,0.0259 0.0207,0.057 0,0.0138 -0.005,0.0328 -0.005,0.0173 -0.009,0.0346 l -0.43217,1.73215 q -0.0259,0.10372 -0.0432,0.1988 -0.0173,0.0933 -0.0259,0.15386 v 0.0415 q 0,0.0519 -0.007,0.1141 -0.007,0.0605 -0.0259,0.11409 -0.019,0.0519 -0.0536,0.0864 -0.0328,0.0363 -0.0864,0.0363 -0.0467,0 -0.0812,-0.0207 -0.0346,-0.019 -0.0571,-0.0501 -0.0225,-0.0311 -0.0328,-0.0657 -0.0104,-0.0363 -0.0104,-0.0674 0,-0.0277 0.005,-0.0674 0.005,-0.0415 0.0121,-0.0847 0.009,-0.0449 0.0173,-0.0882 0.009,-0.0449 0.0173,-0.0778 z"
         style="font-style:normal;font-variant:normal;font-weight:normal;font-stretch:normal;font-family:'MV Boli';-inkscape-font-specification:'MV Boli';text-align:center;text-anchor:middle;fill:#ffffff;fill-opacity:1;stroke-width:0.08850899"
         id="path2700"
         inkscape:connector-curvature="0" />
      <path
         d="m 454.0565,433.23063 q 0.0259,-0.10027 0.0622,-0.23338 0.0363,-0.13311 0.0761,-0.28177 0.0415,-0.14867 0.083,-0.30425 0.0415,-0.15559 0.0778,-0.30253 0.002,-0.007 0.0121,-0.0225 0.0104,-0.0173 0.0294,-0.0328 0.019,-0.0173 0.0484,-0.0294 0.0294,-0.0121 0.0691,-0.0121 0.0294,0 0.0571,0.007 0.0277,0.005 0.0484,0.0173 0.0225,0.0121 0.0346,0.0328 0.0138,0.019 0.0138,0.045 0,0.005 0,0.0121 0,0.005 -0.002,0.0104 l -0.0484,0.18324 q -0.0813,0.30771 -0.16596,0.61715 -0.083,0.30943 -0.1625,0.6206 -0.003,0.0104 -0.0104,0.0259 -0.007,0.0156 -0.019,0.0311 -0.0121,0.0156 -0.0294,0.0259 -0.0173,0.0104 -0.0415,0.0104 -0.045,0 -0.0795,-0.019 -0.0346,-0.0173 -0.0588,-0.0449 -0.0242,-0.0277 -0.0363,-0.0605 -0.0121,-0.0328 -0.0121,-0.0622 0,-0.009 0,-0.0156 0,-0.007 0.003,-0.0156 z m 0.45119,-1.7892 q 0.009,-0.0363 0.0311,-0.0882 0.0225,-0.0519 0.0795,-0.0933 0.0276,-0.0156 0.0674,-0.0277 0.0398,-0.0138 0.0571,-0.0138 0.0173,0 0.0346,0.0121 0.019,0.0121 0.0328,0.0259 0.0173,0.0173 0.0328,0.038 0.0432,0.003 0.0553,0.0311 0.0138,0.0277 0.0138,0.0657 0,0.0277 -0.005,0.0501 -0.005,0.0225 -0.009,0.0363 -0.0104,0.0363 -0.0398,0.0674 -0.0294,0.0294 -0.0674,0.0519 -0.038,0.0207 -0.0795,0.0328 -0.0415,0.0121 -0.0726,0.0121 -0.0398,0 -0.0622,-0.0138 -0.0208,-0.0138 -0.0536,-0.0588 -0.019,-0.0259 -0.0225,-0.0398 -0.002,-0.0156 -0.002,-0.0259 0,-0.019 0.002,-0.0328 0.003,-0.0156 0.007,-0.0294 z"
         style="font-style:normal;font-variant:normal;font-weight:normal;font-stretch:normal;font-family:'MV Boli';-inkscape-font-specification:'MV Boli';text-align:center;text-anchor:middle;fill:#ffffff;fill-opacity:1;stroke-width:0.08850899"
         id="path2702"
         inkscape:connector-curvature="0" />
      <path
         d="m 454.93468,432.8797 q 0,-0.0743 0.0398,-0.12619 0.0398,-0.0519 0.10545,-0.0691 0.019,-0.038 0.0588,-0.10199 0.0398,-0.0657 0.0985,-0.14176 0.0588,-0.0761 0.13311,-0.15212 0.0761,-0.0778 0.16595,-0.14003 0.0916,-0.064 0.19534,-0.10372 0.10545,-0.0398 0.223,-0.0398 0.10027,0 0.1746,0.0242 0.0743,0.0242 0.12274,0.0674 0.0484,0.0432 0.0726,0.10373 0.0242,0.0588 0.0242,0.12792 0,0.0588 -0.0156,0.11236 -0.0242,0.0968 -0.0899,0.16942 -0.0657,0.0726 -0.15559,0.12792 -0.0882,0.0536 -0.19361,0.0899 -0.10372,0.0363 -0.20917,0.0605 -0.10372,0.0242 -0.20053,0.038 -0.0968,0.0121 -0.16768,0.019 -0.0156,0.0311 -0.0277,0.0795 -0.0104,0.0467 -0.0104,0.0916 0,0.10027 0.0795,0.15558 0.0795,0.0553 0.21954,0.0553 0.0813,0 0.15558,-0.0173 0.0743,-0.019 0.14003,-0.0467 0.0674,-0.0294 0.12619,-0.0622 0.0588,-0.0346 0.10718,-0.0674 0.0622,-0.0415 0.11755,-0.0692 0.0571,-0.0294 0.10026,-0.0294 0.0432,0 0.0553,0.0225 0.0121,0.0207 0.0121,0.0449 0,0.0138 -0.002,0.0277 0,0.0121 -0.002,0.0208 -0.009,0.0449 -0.0346,0.0899 -0.0259,0.0449 -0.0657,0.0778 -0.17978,0.14175 -0.36994,0.20226 -0.18843,0.0605 -0.40278,0.0605 -0.0415,0 -0.0985,-0.005 -0.0553,-0.005 -0.11582,-0.0207 -0.0605,-0.0156 -0.11928,-0.0449 -0.0588,-0.0294 -0.10545,-0.0778 -0.045,-0.0484 -0.0743,-0.11928 -0.0277,-0.0709 -0.0277,-0.17114 0,-0.0813 0.0225,-0.18151 -0.0225,-0.003 -0.0432,-0.0225 -0.019,-0.0208 -0.019,-0.0588 z m 1.08216,-0.47885 q 0.003,-0.009 0.003,-0.0156 0,-0.007 0,-0.0156 0,-0.0467 -0.0346,-0.0691 -0.0346,-0.0242 -0.083,-0.0242 -0.0761,0 -0.15039,0.0398 -0.0726,0.0398 -0.1383,0.10026 -0.064,0.0588 -0.11409,0.12792 -0.0501,0.0674 -0.0778,0.12274 0.12446,-0.0104 0.22819,-0.0328 0.10372,-0.0242 0.17978,-0.0588 0.0778,-0.0363 0.12446,-0.0795 0.0484,-0.0449 0.0622,-0.0951 z m -0.20053,-0.46847 z"
         style="font-style:normal;font-variant:normal;font-weight:normal;font-stretch:normal;font-family:'MV Boli';-inkscape-font-specification:'MV Boli';text-align:center;text-anchor:middle;fill:#ffffff;fill-opacity:1;stroke-width:0.08850899"
         id="path2704"
         inkscape:connector-curvature="0" />
      <path
         d="m 457.03331,433.70602 q -0.0432,0 -0.0778,-0.0173 -0.0328,-0.0156 -0.0571,-0.045 -0.0225,-0.0277 -0.0363,-0.064 -0.0121,-0.0363 -0.0121,-0.0778 0,-0.0294 0.007,-0.064 0.007,-0.0363 0.0207,-0.0864 0.005,-0.0225 0.0156,-0.0674 0.0104,-0.0449 0.0208,-0.10199 0.0104,-0.057 0.0207,-0.12101 0.0121,-0.064 0.0207,-0.12446 0.0104,-0.0605 0.0156,-0.11237 0.005,-0.0519 0.005,-0.0864 0,-0.0225 -0.002,-0.0294 -0.003,-0.0259 -0.038,-0.0346 -0.0328,-0.0104 -0.0726,-0.0208 -0.038,-0.0121 -0.0709,-0.0363 -0.0311,-0.0259 -0.0311,-0.083 0,-0.0467 0.0207,-0.0882 0.0225,-0.0415 0.057,-0.0588 0.0398,-0.019 0.0882,-0.0207 0.0501,-0.002 0.0985,-0.0104 0.0277,-0.003 0.038,-0.0328 0.0121,-0.0294 0.019,-0.057 0.0207,-0.0795 0.045,-0.17114 0.0242,-0.0933 0.0553,-0.18843 0.0328,-0.0968 0.0709,-0.18843 0.0398,-0.0916 0.0882,-0.16941 0.0778,-0.10545 0.16596,-0.19707 0.0899,-0.0916 0.19015,-0.15904 0.102,-0.0691 0.21436,-0.10718 0.1141,-0.0398 0.24202,-0.0398 0.15385,0 0.25066,0.0519 0.0968,0.0519 0.15731,0.15558 0.0138,0.0242 0.019,0.0501 0.005,0.0242 0.005,0.0501 0,0.0467 -0.0138,0.0882 -0.0121,0.0398 -0.0346,0.0709 -0.0225,0.0294 -0.0536,0.0467 -0.0294,0.0173 -0.0622,0.0173 -0.0467,0 -0.0726,-0.019 -0.0259,-0.019 -0.0432,-0.0467 -0.0155,-0.0277 -0.0259,-0.0605 -0.009,-0.0346 -0.0207,-0.0622 -0.0104,-0.0277 -0.0294,-0.0467 -0.019,-0.019 -0.0536,-0.019 -0.0346,0 -0.0795,0.009 -0.0432,0.009 -0.083,0.0294 -0.10545,0.0553 -0.19534,0.12447 -0.0899,0.0674 -0.16768,0.17287 -0.0761,0.10545 -0.14175,0.25757 -0.064,0.15213 -0.11928,0.37513 -0.002,0.003 -0.003,0.009 -0.002,0.005 -0.002,0.007 0,0.003 0.0138,0.003 0.0519,0 0.0985,-0.005 0.0484,-0.007 0.0951,-0.0138 0.0467,-0.009 0.0934,-0.0138 0.0484,-0.007 0.102,-0.007 0.0398,0 0.0743,0.003 0.0346,0.003 0.0588,0.0156 0.0259,0.0104 0.0398,0.0311 0.0156,0.0208 0.0156,0.0553 0,0.0208 -0.007,0.0519 -0.005,0.0294 -0.019,0.0588 -0.0121,0.0277 -0.0328,0.0501 -0.019,0.0225 -0.0484,0.0277 -0.0519,0.0104 -0.10717,0.0173 -0.0553,0.005 -0.12101,0.0138 -0.0657,0.007 -0.14521,0.0225 -0.0795,0.0138 -0.17806,0.0415 -0.0311,0.11755 -0.0484,0.23337 -0.0156,0.1141 -0.0277,0.22819 -0.0121,0.11409 -0.0277,0.22992 -0.0138,0.11409 -0.0415,0.22991 -0.005,0.0225 -0.019,0.045 -0.0121,0.0225 -0.0311,0.0398 -0.0173,0.019 -0.0415,0.0294 -0.0225,0.0121 -0.0484,0.0121 z"
         style="font-style:normal;font-variant:normal;font-weight:normal;font-stretch:normal;font-family:'MV Boli';-inkscape-font-specification:'MV Boli';text-align:center;text-anchor:middle;fill:#1b1b1b;fill-opacity:1;stroke-width:0.08850899"
         id="path2706"
         inkscape:connector-curvature="0" />
    </g>
    <ellipse
       style="opacity:1;vector-effect:none;fill:#f5ffff;fill-opacity:1;stroke:none;stroke-width:0;stroke-linecap:butt;stroke-linejoin:round;stroke-miterlimit:4;stroke-dasharray:none;stroke-dashoffset:0;stroke-opacity:1;paint-order:markers stroke fill;filter:url(#filter2023)"
       id="path1945"
       cx="490.66977"
       cy="424"
       rx="18.123959"
       ry="10.847917"
       transform="matrix(1,0,0,2.5,0.08498341,-662.29674)" />
    <text
       xml:space="preserve"
       style="font-style:normal;font-weight:normal;font-size:10.58333302px;line-height:1.25;font-family:sans-serif;letter-spacing:0px;word-spacing:0px;fill:#000000;fill-opacity:1;stroke:none;stroke-width:0.26458332"
       x="504.263"
       y="481.84796"
       id="text2711"><tspan
         sodipodi:role="line"
         id="tspan2709"
         x="504.263"
         y="481.84796"
         style="stroke-width:0.26458332" /></text>
  </g>
</svg>
