<?xml version="1.0" encoding="UTF-8" standalone="no"?>
<svg
   xmlns:dc="http://purl.org/dc/elements/1.1/"
   xmlns:cc="http://creativecommons.org/ns#"
   xmlns:rdf="http://www.w3.org/1999/02/22-rdf-syntax-ns#"
   xmlns:svg="http://www.w3.org/2000/svg"
   xmlns="http://www.w3.org/2000/svg"
   xmlns:sodipodi="http://sodipodi.sourceforge.net/DTD/sodipodi-0.dtd"
   xmlns:inkscape="http://www.inkscape.org/namespaces/inkscape"
   width="97.794189mm"
   height="84.382301mm"
   viewBox="0 0 97.794188 84.382301"
   version="1.1"
   id="svg8"
   sodipodi:docname="fare.svg"
   inkscape:version="0.92.2 (5c3e80d, 2017-08-06)">
  <sodipodi:namedview
     pagecolor="#ffffff"
     bordercolor="#666666"
     borderopacity="1"
     objecttolerance="10"
     gridtolerance="10"
     guidetolerance="10"
     inkscape:pageopacity="0"
     inkscape:pageshadow="2"
     inkscape:window-width="1366"
     inkscape:window-height="749"
     id="namedview94"
     showgrid="false"
     inkscape:zoom="1.4799707"
     inkscape:cx="252.66002"
     inkscape:cy="180.43342"
     inkscape:window-x="-4"
     inkscape:window-y="-4"
     inkscape:window-maximized="1"
     inkscape:current-layer="svg8" />
  <defs
     id="defs2" />
  <metadata
     id="metadata5">
    <rdf:RDF>
      <cc:Work
         rdf:about="">
        <dc:format>image/svg+xml</dc:format>
        <dc:type
           rdf:resource="http://purl.org/dc/dcmitype/StillImage" />
        <dc:title />
      </cc:Work>
    </rdf:RDF>
  </metadata>
  <path
     id="rect1348"
     d="M 38.335089,67.102738 49.59871,75.121522 41.653489,80.776268 27.648223,68.302304 Z"
     style="opacity:1;vector-effect:none;fill:#333333;fill-opacity:1;stroke:none;stroke-width:0;stroke-linecap:butt;stroke-linejoin:round;stroke-miterlimit:4;stroke-dasharray:none;stroke-dashoffset:0;stroke-opacity:1;paint-order:markers stroke fill"
     inkscape:connector-curvature="0" />
  <path
     id="path995-6"
     d="M 67.963964,79.320392 A 13.513174,4.7883496 0 0 1 54.450789,84.108743 13.513174,4.7883496 0 0 1 40.937616,79.320392 13.513174,4.7883496 0 0 1 54.450789,74.532043 13.513174,4.7883496 0 0 1 67.963964,79.320392 Z"
     style="opacity:1;vector-effect:none;fill:#333333;fill-opacity:1;stroke:none;stroke-width:0;stroke-linecap:butt;stroke-linejoin:round;stroke-miterlimit:4;stroke-dasharray:none;stroke-dashoffset:0;stroke-opacity:1;paint-order:markers stroke fill"
     inkscape:connector-curvature="0" />
  <path
     id="path1292"
     d="m 31.2614,10.900098 c 0,0 1.357045,-6.9790981 2.326363,-7.5606896 0.969322,-0.5815914 2.90796,-2.52022987 6.203643,-2.90795753 3.295687,-0.38772759 9.693193,0.19386378 9.693193,0.19386378 l 5.428187,6.20364245 0.193864,9.1115989 2.132502,5.234325 9.887055,-1.357047 c 0,0 13.182742,1.357047 17.641607,4.846596 4.458869,3.489548 9.305465,5.622051 9.693192,7.366825 0.387728,1.744775 -0.969318,4.458867 -1.357046,5.622051 -0.387726,1.163183 -6.979096,7.948418 -7.948417,9.1116 -0.969318,1.163181 -8.53001,5.040461 -8.53001,5.040461 l -7.17296,1.357045 1.744775,-2.714094 5.234324,-6.203642 -12.795013,4.652732 2.907956,-3.489548 2.520229,-4.846597 -11.825692,0.96932 6.203643,-2.326365 11.825692,-0.775457 c 0,0 12.601149,0.387728 12.601149,-0.581591 v -5.040459 c 0,0 -0.387726,-3.101822 -3.683411,-3.877278 -3.295687,-0.775455 -15.121381,-4.071139 -15.896836,-3.877275 -0.775454,0.193863 -3.10182,1.938638 -3.10182,1.938638 l -1.163182,2.326365 2.907956,4.652732 -2.132502,5.234325 -0.969318,3.683411 c 0,0 0.581589,4.265005 0.969318,5.040458 0.387728,0.775457 0.775456,3.295687 0.775456,3.295687 L 60.156852,74.483398 47.890683,75.582076 27.577985,68.283792 c 0,0 1.163185,-6.785234 1.357049,-9.693192 0.193864,-2.907958 -1.938639,-10.08092 -2.907959,-11.63183 -0.969318,-1.55091 -2.714094,-3.101822 -3.295684,-5.622051 -0.581591,-2.52023 -0.387728,-7.172962 -0.387728,-7.172962 l -6.979099,3.101823 c 0,0 0.969321,4.846593 1.938638,6.009777 0.96932,1.163182 7.948417,5.428187 7.948417,5.428187 l -3.489548,0.193864 c 0,0 2.326365,3.489549 3.877275,4.071141 1.550914,0.581591 16.090699,-2.520231 8.336146,0.775456 -7.754553,3.295685 -8.723873,3.877277 -8.723873,3.877277 l -7.754553,-1.163185 5.040461,5.622053 c 0,0 -8.142281,-3.683415 -8.917741,-4.458868 -0.775452,-0.775457 -9.4993171,-5.234325 -9.3054598,-6.9791 0.193868,-1.744774 0.3877362,-7.17296 1.357055,-8.723873 0.969319,-1.550911 0.5815826,-6.397504 3.6834042,-8.142279 3.1018246,-1.744775 -0.969319,-1.357047 6.3975076,-2.714094 7.366826,-1.357047 7.560688,-1.550911 9.111601,-2.907958 1.550909,-1.357046 3.101819,-4.265004 3.101819,-5.234323 0,-0.96932 -1.55091,-4.265004 -1.357045,-5.234323 0.193864,-0.96932 0.387727,-2.52023 1.55091,-3.683413 1.163182,-1.163183 3.101822,-3.101821 3.101822,-3.101821 z"
     style="fill:#000000;fill-opacity:1;stroke:none;stroke-width:0.2869128px;stroke-linecap:butt;stroke-linejoin:miter;stroke-opacity:1"
     inkscape:connector-curvature="0" />
  <text
     transform="rotate(0.6341228)"
     id="text1398"
     y="5.5265994"
     x="38.244408"
     style="font-style:normal;font-weight:normal;font-size:3.8893559px;line-height:1.25;font-family:sans-serif;letter-spacing:0px;word-spacing:0px;fill:#f2f2f2;fill-opacity:1;stroke:none;stroke-width:0.09723388"
     xml:space="preserve"><tspan
       style="fill:#f2f2f2;fill-opacity:1;stroke-width:0.09723388"
       y="5.5265994"
       x="38.244408"
       id="tspan1396">FEAR</tspan></text>
  <path
     id="path815-5-2"
     d="m 62.01039,61.132989 c 0,2.947574 0.243763,11.286479 -1.940179,14.715423 -1.946195,3.055666 -4.229757,1.53286 -6.843659,1.53286 -2.285421,0 -3.972811,0.413865 -5.525186,-2.077689 -2.21552,-3.555894 -1.513879,-10.699066 -1.513879,-13.97673 0,-5.574269 2.945921,-9.269184 8.493042,-9.269184 5.547123,0 7.329861,3.501051 7.329861,9.07532 z"
     style="opacity:1;vector-effect:none;fill:#008080;fill-opacity:1;stroke:none;stroke-width:0;stroke-linecap:butt;stroke-linejoin:round;stroke-miterlimit:4;stroke-dasharray:none;stroke-dashoffset:0;stroke-opacity:1;paint-order:markers stroke fill"
     inkscape:connector-curvature="0" />
  <path
     id="rect1075-0"
     d="m 46.77979,73.081617 c 0.151032,-0.359456 13.946157,0.0176 14.205316,0.568006 0.143696,0.305181 -0.634773,2.503035 -1.571994,3.351559 -2.075578,1.879149 -9.547768,1.654736 -10.992012,-0.400006 -0.713645,-1.015309 -1.767075,-3.220244 -1.64131,-3.519559 z"
     style="opacity:1;vector-effect:none;fill:#1d1d1d;fill-opacity:1;stroke:#f1c40f;stroke-width:0;stroke-linecap:butt;stroke-linejoin:round;stroke-miterlimit:4;stroke-dasharray:none;stroke-dashoffset:0;stroke-opacity:1;paint-order:markers stroke fill"
     inkscape:connector-curvature="0" />
  <path
     id="rect1169-0-4"
     d="m 50.977796,62.621952 c 1.778651,0.146526 3.170918,2.143228 2.865792,4.449451 l -1.525905,11.533178 c -0.305124,2.306224 -1.204786,4.114104 -2.983437,3.967576 -0.716063,-0.059 -1.764878,0.0071 -1.787329,-0.02539 -0.553291,-0.803457 -0.552225,-2.987919 -0.506574,-4.376942 L 47.422468,66.54242 c 0.07642,-2.325064 1.776677,-4.066991 3.555328,-3.920461 z"
     style="opacity:1;vector-effect:none;fill:#1a1a1a;fill-opacity:1;stroke:#f1c40f;stroke-width:0;stroke-linecap:butt;stroke-linejoin:round;stroke-miterlimit:4;stroke-dasharray:none;stroke-dashoffset:0;stroke-opacity:1;paint-order:markers stroke fill"
     inkscape:connector-curvature="0" />
  <path
     id="rect1169-0"
     d="m 57.463703,62.768234 c 1.77865,0.146527 3.170917,2.143228 2.865791,4.449452 l -1.525905,11.533176 c -0.305123,2.306226 -1.204786,4.114105 -2.983437,3.967577 -0.716062,-0.059 -1.764878,0.0071 -1.787329,-0.02539 -0.553291,-0.803458 -0.552224,-2.987921 -0.506574,-4.376944 l 0.382125,-11.627406 c 0.07642,-2.325063 1.776677,-4.06699 3.555329,-3.92046 z"
     style="opacity:1;vector-effect:none;fill:#1a1a1a;fill-opacity:1;stroke:#f1c40f;stroke-width:0;stroke-linecap:butt;stroke-linejoin:round;stroke-miterlimit:4;stroke-dasharray:none;stroke-dashoffset:0;stroke-opacity:1;paint-order:markers stroke fill"
     inkscape:connector-curvature="0" />
  <path
     style="fill:#a05a2c;fill-opacity:1;stroke:none;stroke-width:0.06417958px;stroke-linecap:butt;stroke-linejoin:miter;stroke-opacity:1"
     d="m 46.674183,54.872297 c 0,0 -3.367067,9.601745 -1.732318,14.77787 1.047729,3.317383 3.406281,2.655391 7.970547,4.157405 1.436958,0.754493 3.499981,-0.122134 2.400511,-2.106984 -1.784924,-1.710709 -7.209687,0.250956 -8.054258,-3.353184 -0.844532,-3.604171 1.561788,-10.55957 0.462301,-12.544464 -1.099509,-1.984896 -1.046753,-0.930609 -1.046753,-0.930609 z"
     id="path946-6-5"
     inkscape:connector-curvature="0" />
  <path
     id="rect903-4-0"
     d="m 50.670855,53.393609 0.518287,1.230893 c 0.223609,0.530282 0.499727,0.690841 0.125729,1.128281 0,0 -0.285635,4.390753 -2.30172,3.638076 -0.539169,-0.201291 -0.610677,3.154186 -0.610677,3.154186 l -4.231569,-2.635436 c 1.431115,-2.240202 1.052426,-6.429401 5.671399,-7.128487 0.914065,-0.11841 0.605189,0.08207 0.82853,0.612495 z"
     style="opacity:1;vector-effect:none;fill:#008080;fill-opacity:1;stroke:none;stroke-width:0;stroke-linecap:butt;stroke-linejoin:round;stroke-miterlimit:4;stroke-dasharray:none;stroke-dashoffset:0;stroke-opacity:1;paint-order:markers stroke fill"
     inkscape:connector-curvature="0" />
  <path
     style="fill:#a05a2c;fill-opacity:1;stroke:none;stroke-width:0.06417958px;stroke-linecap:butt;stroke-linejoin:miter;stroke-opacity:1"
     d="m 61.573853,54.834328 c 0,0 3.558078,10.129163 1.923331,15.305288 -1.04773,3.317384 -3.543364,3.957674 -7.079511,5.116983 -1.436961,0.754493 -3.499983,-0.122136 -2.400512,-2.106986 1.099512,-1.984872 6.318653,-0.70862 7.163221,-4.312759 0.227662,-3.741255 -1.752798,-11.086989 -0.653311,-13.071883 1.099508,-1.984895 1.046753,-0.93061 1.046753,-0.93061 z"
     id="path946-6-5-1"
     inkscape:connector-curvature="0" />
  <path
     id="rect903-4-0-2"
     d="m 57.963484,53.464333 -0.518286,1.230893 c -0.223612,0.530283 -0.499728,0.690841 -0.125731,1.12828 0,0 0.285635,4.390754 2.30172,3.638077 0.539169,-0.201292 0.610678,3.154186 0.610678,3.154186 l 4.231568,-2.635435 c -1.431115,-2.240204 -1.052426,-6.4294 -5.671399,-7.128487 -0.914066,-0.118411 -0.605189,0.08207 -0.82853,0.612495 z"
     style="opacity:1;vector-effect:none;fill:#008080;fill-opacity:1;stroke:none;stroke-width:0;stroke-linecap:butt;stroke-linejoin:round;stroke-miterlimit:4;stroke-dasharray:none;stroke-dashoffset:0;stroke-opacity:1;paint-order:markers stroke fill"
     inkscape:connector-curvature="0" />
  <path
     style="opacity:1;vector-effect:none;fill:#241f1c;fill-opacity:1;stroke:none;stroke-width:0;stroke-linecap:butt;stroke-linejoin:round;stroke-miterlimit:4;stroke-dasharray:none;stroke-dashoffset:0;stroke-opacity:1;paint-order:markers stroke fill"
     d="m 54.061715,48.493074 c 2.547752,0 4.894962,2.513167 4.59884,5.60315 l -0.444961,4.642875 c -0.296132,3.089985 -1.19488,3.217895 -3.742632,3.217895 -2.547752,0 -4.280005,0.0096 -4.56673,-3.081316 l -0.443355,-4.779454 c -0.286717,-3.09087 2.051087,-5.60315 4.598838,-5.60315 z"
     id="path936-0"
     inkscape:connector-curvature="0" />
  <ellipse
     style="opacity:1;vector-effect:none;fill:#6f4225;fill-opacity:1;stroke:none;stroke-width:0;stroke-linecap:butt;stroke-linejoin:round;stroke-miterlimit:4;stroke-dasharray:none;stroke-dashoffset:0;stroke-opacity:1;paint-order:markers stroke fill"
     id="ellipse972-9"
     cx="54.066086"
     cy="59.085014"
     rx="4.1439085"
     ry="3.9824576" />
  <path
     style="opacity:1;vector-effect:none;fill:#a05a2c;fill-opacity:1;stroke:none;stroke-width:0;stroke-linecap:butt;stroke-linejoin:round;stroke-miterlimit:4;stroke-dasharray:none;stroke-dashoffset:0;stroke-opacity:1;paint-order:markers stroke fill"
     d="m 54.027445,49.889696 c 2.549272,0 4.787744,2.054076 4.601569,4.592685 l -0.282167,3.847512 c -0.186177,2.538602 -2.535607,4.460265 -4.319402,4.532935 -1.783805,0.07271 -4.024233,-2.017282 -4.254287,-4.552848 l -0.347281,-3.827599 c -0.230064,-2.535577 2.052296,-4.592685 4.601568,-4.592685 z"
     id="path974-1"
     inkscape:connector-curvature="0" />
  <ellipse
     style="opacity:1;vector-effect:none;fill:#241f1c;fill-opacity:1;stroke:none;stroke-width:0;stroke-linecap:butt;stroke-linejoin:round;stroke-miterlimit:4;stroke-dasharray:none;stroke-dashoffset:0;stroke-opacity:1;paint-order:markers stroke fill"
     id="ellipse980-1"
     cx="54.019722"
     cy="50.693008"
     rx="3.0069504"
     ry="1.5956711" />
  <path
     style="opacity:1;vector-effect:none;fill:#000000;fill-opacity:1;stroke:none;stroke-width:0;stroke-linecap:butt;stroke-linejoin:round;stroke-miterlimit:4;stroke-dasharray:none;stroke-dashoffset:0;stroke-opacity:1;paint-order:markers stroke fill"
     d="m 52.680053,61.398536 c 0,0 0.550014,-0.903831 1.439829,-0.927176 0.230525,-0.0057 0.445649,0.05657 0.637286,0.151801 0.529614,0.263173 0.879814,0.775375 0.879814,0.775375 0.0322,-0.0048 0.05856,0.03126 0.05856,0.07017 0,0.0389 -0.02616,0.07017 -0.05856,0.07017 0,0 -0.375009,-0.538701 -0.939028,-0.794905 -0.171728,-0.078 -0.360966,-0.129816 -0.56249,-0.132271 -0.881975,-0.01073 -1.455411,0.927176 -1.455411,0.927176 -0.03221,-0.0048 -0.05856,-0.03126 -0.05856,-0.07017 0,-0.03892 0.02616,-0.07017 0.05856,-0.07017 z"
     id="path988-2-6"
     inkscape:connector-curvature="0" />
  <ellipse
     ry="1.5864305"
     rx="1.4944637"
     cy="55.547771"
     cx="52.076675"
     id="ellipse1775-9"
     style="opacity:1;vector-effect:none;fill:#f9f9f9;fill-opacity:1;stroke:none;stroke-width:0;stroke-linecap:butt;stroke-linejoin:round;stroke-miterlimit:4;stroke-dasharray:none;stroke-dashoffset:0;stroke-opacity:1;paint-order:markers stroke fill" />
  <ellipse
     style="opacity:1;vector-effect:none;fill:#000000;fill-opacity:1;stroke:none;stroke-width:0;stroke-linecap:butt;stroke-linejoin:round;stroke-miterlimit:4;stroke-dasharray:none;stroke-dashoffset:0;stroke-opacity:1;paint-order:markers stroke fill"
     id="ellipse1777-9"
     cx="51.272346"
     cy="55.083858"
     rx="0.50243741"
     ry="0.53335655" />
  <ellipse
     ry="1.5864305"
     rx="1.4944637"
     cy="55.547771"
     cx="55.94529"
     id="ellipse1775-9-3"
     style="opacity:1;vector-effect:none;fill:#f9f9f9;fill-opacity:1;stroke:none;stroke-width:0;stroke-linecap:butt;stroke-linejoin:round;stroke-miterlimit:4;stroke-dasharray:none;stroke-dashoffset:0;stroke-opacity:1;paint-order:markers stroke fill" />
  <ellipse
     style="opacity:1;vector-effect:none;fill:#000000;fill-opacity:1;stroke:none;stroke-width:0;stroke-linecap:butt;stroke-linejoin:round;stroke-miterlimit:4;stroke-dasharray:none;stroke-dashoffset:0;stroke-opacity:1;paint-order:markers stroke fill"
     id="ellipse1777-9-5"
     cx="60.158089"
     cy="51.614586"
     rx="0.24416617"
     ry="0.25919178" />
  <path
     id="ellipse948-7"
     d="m 60.19924,82.80993 c 0,0 -5.931379,0.03253 -6.01812,0 0,-2.585685 1.347197,-4.681787 3.009054,-4.681777 1.661857,0 3.009066,2.096092 3.009066,4.681777 z"
     style="opacity:1;vector-effect:none;fill:#808080;fill-opacity:1;stroke:none;stroke-width:0;stroke-linecap:butt;stroke-linejoin:round;stroke-miterlimit:4;stroke-dasharray:none;stroke-dashoffset:0;stroke-opacity:1;paint-order:markers stroke fill"
     inkscape:connector-curvature="0" />
  <path
     id="ellipse948-7-0"
     d="m 52.753757,82.663647 c 0,0 -5.931379,0.03253 -6.01812,0 0,-2.585684 1.347198,-4.681788 3.009054,-4.681776 1.661858,0 3.009066,2.096092 3.009066,4.681776 z"
     style="opacity:1;vector-effect:none;fill:#808080;fill-opacity:1;stroke:none;stroke-width:0;stroke-linecap:butt;stroke-linejoin:round;stroke-miterlimit:4;stroke-dasharray:none;stroke-dashoffset:0;stroke-opacity:1;paint-order:markers stroke fill"
     inkscape:connector-curvature="0" />
  <path
     id="path1296"
     d="M 41.728572,16.315303 36.82778,13.318568 34.865147,11.666793 35.787754,9.1071077 36.605136,7.679629 38.789067,12.09222 Z"
     style="opacity:1;vector-effect:none;fill:#f2f2f2;fill-opacity:1;stroke:none;stroke-width:0;stroke-linecap:butt;stroke-linejoin:round;stroke-miterlimit:4;stroke-dasharray:none;stroke-dashoffset:0;stroke-opacity:1;paint-order:markers stroke fill"
     inkscape:connector-curvature="0" />
  <path
     id="path1296-7"
     d="M 45.859023,15.993391 50.759816,12.996654 52.722447,11.344878 51.799841,8.7851958 50.982459,7.3577156 48.798528,11.770307 Z"
     style="opacity:1;vector-effect:none;fill:#f2f2f2;fill-opacity:1;stroke:none;stroke-width:0;stroke-linecap:butt;stroke-linejoin:round;stroke-miterlimit:4;stroke-dasharray:none;stroke-dashoffset:0;stroke-opacity:1;paint-order:markers stroke fill"
     inkscape:connector-curvature="0" />
  <path
     id="path1329"
     d="m 33.200038,22.338063 2.811025,4.652733 2.423297,-2.714094 3.489549,3.101822 2.326366,-3.48955 6.106712,2.52023 c 0,0 2.71409,-1.938638 2.71409,-2.423299 0,-0.48466 1.066254,-5.718981 0.387729,-5.040459 -0.678523,0.678524 -4.265004,3.392617 -4.265004,3.392617 l -4.361936,-2.132501 c 0,0 -2.423296,3.489548 -3.101821,3.10182 -0.678524,-0.387727 -3.295685,-2.520228 -3.489549,-2.132501 -0.193864,0.387727 -1.550909,2.520229 -1.550909,2.520229 z"
     style="fill:#f2f2f2;fill-opacity:1;stroke:none;stroke-width:0.2869128px;stroke-linecap:butt;stroke-linejoin:miter;stroke-opacity:1"
     inkscape:connector-curvature="0" />
  <ellipse
     style="opacity:1;vector-effect:none;fill:#000000;fill-opacity:1;stroke:none;stroke-width:0;stroke-linecap:butt;stroke-linejoin:round;stroke-miterlimit:4;stroke-dasharray:none;stroke-dashoffset:0;stroke-opacity:1;paint-order:markers stroke fill"
     id="ellipse1777-9-3"
     cx="55.25877"
     cy="55.015648"
     rx="0.50243741"
     ry="0.53335655" />
</svg>
