<?xml version="1.0" encoding="UTF-8" standalone="no"?>
<svg
   xmlns:dc="http://purl.org/dc/elements/1.1/"
   xmlns:cc="http://creativecommons.org/ns#"
   xmlns:rdf="http://www.w3.org/1999/02/22-rdf-syntax-ns#"
   xmlns:svg="http://www.w3.org/2000/svg"
   xmlns="http://www.w3.org/2000/svg"
   xmlns:xlink="http://www.w3.org/1999/xlink"
   xmlns:sodipodi="http://sodipodi.sourceforge.net/DTD/sodipodi-0.dtd"
   xmlns:inkscape="http://www.inkscape.org/namespaces/inkscape"
   id="svg8"
   version="1.1"
   viewBox="0 0 97.794188 84.382301"
   height="84.382301mm"
   width="97.794189mm"
   sodipodi:docname="pride.svg"
   inkscape:version="0.92.2 (5c3e80d, 2017-08-06)">
  <sodipodi:namedview
     pagecolor="#ffffff"
     bordercolor="#666666"
     borderopacity="1"
     objecttolerance="10"
     gridtolerance="10"
     guidetolerance="10"
     inkscape:pageopacity="0"
     inkscape:pageshadow="2"
     inkscape:window-width="1366"
     inkscape:window-height="749"
     id="namedview67"
     showgrid="false"
     inkscape:zoom="0.73998535"
     inkscape:cx="184.80792"
     inkscape:cy="159.46262"
     inkscape:window-x="-4"
     inkscape:window-y="-4"
     inkscape:window-maximized="1"
     inkscape:current-layer="svg8" />
  <defs
     id="defs2" />
  <metadata
     id="metadata5">
    <rdf:RDF>
      <cc:Work
         rdf:about="">
        <dc:format>image/svg+xml</dc:format>
        <dc:type
           rdf:resource="http://purl.org/dc/dcmitype/StillImage" />
        <dc:title></dc:title>
      </cc:Work>
    </rdf:RDF>
  </metadata>
  <g
     transform="translate(184.11354,-190.24588)"
     id="layer1">
    <rect
       ry="0"
       y="190.24588"
       x="-184.11354"
       height="84.382301"
       width="97.794189"
       id="rect1822"
       style="opacity:1;vector-effect:none;fill:#ffffff;fill-opacity:1;stroke:#f1c40f;stroke-width:0;stroke-linecap:butt;stroke-linejoin:round;stroke-miterlimit:4;stroke-dasharray:none;stroke-dashoffset:0;stroke-opacity:1;paint-order:markers stroke fill" />
    <ellipse
       ry="6.6911364"
       rx="13.845144"
       cy="267.48642"
       cx="-137.60117"
       id="path995"
       style="opacity:1;vector-effect:none;fill:#333333;fill-opacity:1;stroke:none;stroke-width:0;stroke-linecap:butt;stroke-linejoin:round;stroke-miterlimit:4;stroke-dasharray:none;stroke-dashoffset:0;stroke-opacity:1;paint-order:markers stroke fill" />
    <rect
       transform="matrix(-0.99987937,-0.0155318,-0.00263522,0.99999653,0,0)"
       ry="0.070339426"
       y="255.62177"
       x="127.99511"
       height="8.065588"
       width="0.057949774"
       id="rect1211-4"
       style="opacity:1;vector-effect:none;fill:#ffffff;fill-opacity:1;stroke:#393939;stroke-width:0;stroke-linecap:butt;stroke-linejoin:round;stroke-miterlimit:4;stroke-dasharray:none;stroke-dashoffset:0;stroke-opacity:1;paint-order:markers stroke fill" />
    <path
       style="opacity:1;vector-effect:none;fill:#241f1c;fill-opacity:1;stroke:none;stroke-width:0;stroke-linecap:butt;stroke-linejoin:round;stroke-miterlimit:4;stroke-dasharray:none;stroke-dashoffset:0;stroke-opacity:1;paint-order:markers stroke fill"
       d="m -135.75844,212.98953 c 1.94215,0 3.49242,0.95912 3.38061,3.41685 -0.40066,3.78405 0.64637,6.2818 -3.52491,6.3303 -1.94215,0 -2.8503,-0.99122 -2.92721,-1.64034 0,0 -0.28516,-2.77437 -0.42988,-4.56184 -0.1985,-2.45171 1.55925,-3.54497 3.50139,-3.54497 z"
       id="path936-2" />
    <path
       id="path815-5"
       d="m -130.89443,232.15256 c 0,3.87936 0.32694,7.58903 -0.71618,7.9655 -3.00813,-0.0543 -5.78889,0.0488 -8.79679,-0.008 -1.60907,-0.1014 -0.46323,-3.69915 -0.46323,-7.90785 0,-7.00163 1.35113,-10.69648 4.65861,-10.69648 5.71136,2.5978 5.31759,6.18015 5.31759,10.64643 z"
       style="opacity:1;vector-effect:none;fill:#2f7d7d;fill-opacity:1;stroke:none;stroke-width:0;stroke-linecap:butt;stroke-linejoin:round;stroke-miterlimit:4;stroke-dasharray:none;stroke-dashoffset:0;stroke-opacity:1;paint-order:markers stroke fill" />
    <path
       style="fill:#854f2b;fill-opacity:1;stroke:none;stroke-width:0.040675px;stroke-linecap:butt;stroke-linejoin:miter;stroke-opacity:1"
       d="m -138.26398,221.2318 c 0,0 -8.0124,2.64461 -9.30884,5.83116 -0.83088,2.04227 0.7132,4.01911 1.93268,6.94413 0.39581,0.9494 1.75691,1.35631 2.02348,-0.0568 0.26656,-1.41314 -2.99423,-4.23482 -1.94823,-6.3348 1.04603,-2.09998 7.6547,-3.09137 7.92128,-4.50451 0.26657,-1.41315 -0.62037,-1.87915 -0.62037,-1.87915 z"
       id="path946-6" />
    <path
       id="rect903-4"
       d="m -136.83366,222.47477 -0.0336,1.23116 c -0.0142,0.53052 0.15653,0.77054 -0.32419,0.99545 0,0 -1.9124,3.57866 -3.31885,2.17858 -0.37613,-0.37443 -2.53684,0.7673 -2.53684,0.7673 l -1.55456,-3.42281 c 2.05522,-1.33624 4.83603,-3.33539 7.30551,-2.57967 0.81276,0.24874 0.47699,0.29945 0.46251,0.82999 z"
       style="opacity:1;vector-effect:none;fill:#2f7d7d;fill-opacity:1;stroke:none;stroke-width:0;stroke-linecap:butt;stroke-linejoin:round;stroke-miterlimit:4;stroke-dasharray:none;stroke-dashoffset:0;stroke-opacity:1;paint-order:markers stroke fill" />
    <path
       style="fill:#854f2b;fill-opacity:1;stroke:#00eeff;stroke-width:0;stroke-linecap:butt;stroke-linejoin:miter;stroke-miterlimit:4;stroke-dasharray:none;stroke-opacity:1"
       d="m -132.07935,222.22739 c 0,0 5.86297,3.59636 6.79783,7.48605 0.59914,2.49292 -4.67243,3.21916 -8.38262,2.48667 -1.15399,-0.22783 -1.94125,0.24531 -1.98433,-1.40905 -0.043,-1.65434 8.61548,1.26832 7.76852,-1.33893 -0.84696,-2.60723 -5.27339,-3.59366 -5.31648,-5.24803 -0.0431,-1.65435 1.11708,-1.97671 1.11708,-1.97671 z"
       id="path938-2" />
    <path
       id="rect903-3-2"
       d="m -134.3664,222.34854 -0.22715,1.2105 c -0.0981,0.52156 -0.31571,0.7201 0.1067,1.04146 l 3.24581,2.46939 c 0.4224,0.32134 1.8558,1.64655 1.8558,1.64655 l 2.24226,-3.01736 c -1.72672,-1.74008 -4.02267,-4.28137 -6.59604,-4.06414 -0.84697,0.0715 -0.52948,0.19197 -0.62735,0.71361 z"
       style="opacity:1;vector-effect:none;fill:#2f7d7d;fill-opacity:1;stroke:none;stroke-width:0;stroke-linecap:butt;stroke-linejoin:round;stroke-miterlimit:4;stroke-dasharray:none;stroke-dashoffset:0;stroke-opacity:1;paint-order:markers stroke fill" />
    <ellipse
       style="opacity:1;vector-effect:none;fill:#6f4225;fill-opacity:1;stroke:none;stroke-width:0;stroke-linecap:butt;stroke-linejoin:round;stroke-miterlimit:4;stroke-dasharray:none;stroke-dashoffset:0;stroke-opacity:1;paint-order:markers stroke fill"
       id="ellipse972-3"
       cx="-135.65204"
       cy="221.99158"
       rx="2.1598248"
       ry="3.1575027" />
    <path
       id="path895"
       d="m -135.80809,213.81557 c 1.88325,0 3.51387,1.77331 3.39938,3.96833 0,0 -0.0357,2.15051 -0.29066,3.17437 -0.53404,2.14497 -1.72504,2.23515 -3.0428,2.29794 -1.31778,0.0628 -2.38845,-0.21452 -3.06862,-2.065 -0.38263,-1.04098 -0.39669,-3.40731 -0.39669,-3.40731 -0.0484,-2.19784 1.51613,-3.96833 3.39939,-3.96833 z"
       style="opacity:1;vector-effect:none;fill:#854f2b;fill-opacity:1;stroke:none;stroke-width:0;stroke-linecap:butt;stroke-linejoin:round;stroke-miterlimit:4;stroke-dasharray:none;stroke-dashoffset:0;stroke-opacity:1;paint-order:markers stroke fill" />
    <path
       style="opacity:1;vector-effect:none;fill:#000000;fill-opacity:1;stroke:none;stroke-width:0;stroke-linecap:butt;stroke-linejoin:round;stroke-miterlimit:4;stroke-dasharray:none;stroke-dashoffset:0;stroke-opacity:1;paint-order:markers stroke fill"
       d="m -136.94363,220.82351 c 0,0 0.81065,-0.0973 1.21792,-0.0976 0.47095,-2.9e-4 1.40849,0.11107 1.40849,0.11107 0.0255,-0.004 0.0464,0.0248 0.0464,0.0556 0,0.0308 -0.0207,0.0556 -0.0464,0.0556 0,0 -0.92928,-0.11102 -1.39614,-0.11107 -0.41138,-5e-5 -1.23027,0.0976 -1.23027,0.0976 -0.0255,-0.004 -0.0464,-0.0248 -0.0464,-0.0556 0,-0.0309 0.0207,-0.0556 0.0464,-0.0556 z"
       id="path988-2" />
    <path
       style="opacity:1;vector-effect:none;fill:#000000;fill-opacity:1;stroke:none;stroke-width:0;stroke-linecap:butt;stroke-linejoin:round;stroke-miterlimit:4;stroke-dasharray:none;stroke-dashoffset:0;stroke-opacity:1;paint-order:markers stroke fill"
       d="m -138.08847,217.58219 c 0,0 0.3681,0.46091 0.62896,0.46589 0.27128,0.005 0.67209,-0.45921 0.67209,-0.45921 0.0127,-10e-4 0.023,0.10515 0.023,0.12042 0,0.0153 -0.0102,0.0275 -0.023,0.0275 0,0 -0.39635,0.46315 -0.66596,0.45921 -0.26252,-0.004 -0.63509,-0.46589 -0.63509,-0.46589 -0.0127,-0.002 -0.023,-0.0123 -0.023,-0.0276 0,-0.0153 0.0103,-0.12041 0.023,-0.12041 z"
       id="path988-2-0" />
    <ellipse
       style="opacity:1;vector-effect:none;fill:#241f1c;fill-opacity:1;stroke:none;stroke-width:0;stroke-linecap:butt;stroke-linejoin:round;stroke-miterlimit:4;stroke-dasharray:none;stroke-dashoffset:0;stroke-opacity:1;paint-order:markers stroke fill"
       id="ellipse980-9"
       cx="-135.79024"
       cy="214.53847"
       rx="2.3840692"
       ry="1.2651323" />
    <path
       id="path1107-7"
       d="m -137.82892,262.01982 c -0.0258,1.01459 -1.5893,2.15238 0.54936,2.15257 1.63369,1.4e-4 2.80165,0.10354 2.5589,-0.35242 -0.35829,-0.67303 -1.7284,-1.73878 -1.49975,-2.99232 0.13918,-0.76301 -1.58271,0.17757 -1.60851,1.19217 z"
       style="opacity:1;vector-effect:none;fill:#5b5b5b;fill-opacity:1;stroke:#f1c40f;stroke-width:0;stroke-linecap:butt;stroke-linejoin:round;stroke-miterlimit:4;stroke-dasharray:none;stroke-dashoffset:0;stroke-opacity:1;paint-order:markers stroke fill" />
    <path
       id="rect874-5-3"
       d="m -136.92579,261.80517 -0.55964,-0.0898 c -0.48741,-0.0782 -0.82033,-0.53418 -0.74647,-1.02227 l 1.2166,-8.03953 c 0.0738,-0.48808 0.52571,-0.81803 1.01312,-0.73978 l 0.55964,0.0898 c 0.4874,0.0782 0.8413,0.53782 0.74647,1.02226 l -1.56974,8.01851 c -0.0948,0.48444 -0.17257,0.83906 -0.65998,0.76081 z"
       style="opacity:1;vector-effect:none;fill:#1d1d1d;fill-opacity:1;stroke:none;stroke-width:0;stroke-linecap:butt;stroke-linejoin:round;stroke-miterlimit:4;stroke-dasharray:none;stroke-dashoffset:0;stroke-opacity:1;paint-order:markers stroke fill" />
    <rect
       y="240.20078"
       x="-140.67975"
       height="1.3536066"
       width="9.1331711"
       id="rect1075"
       style="opacity:1;vector-effect:none;fill:#1d1d1d;fill-opacity:1;stroke:#f1c40f;stroke-width:0;stroke-linecap:butt;stroke-linejoin:round;stroke-miterlimit:4;stroke-dasharray:none;stroke-dashoffset:0;stroke-opacity:1;paint-order:markers stroke fill" />
    <path
       id="rect874-6-6-7"
       d="m -136.26577,253.73437 -1.01936,-0.17468 c -0.74558,-0.12729 -1.19964,-0.7614 -1.0181,-1.42169 l 2.98983,-10.87596 c 0.18111,-0.66037 0.92787,-1.08935 1.67344,-0.96203 l 1.01936,0.17468 c 0.74558,0.12729 1.2651,-0.24429 1.11222,0.93122 -0.15285,1.17553 -3.08393,11.36642 -3.08393,11.36642 -0.18112,0.66038 -0.92788,1.08936 -1.67346,0.96204 z"
       style="opacity:1;vector-effect:none;fill:#1d1d1d;fill-opacity:1;stroke:none;stroke-width:0;stroke-linecap:butt;stroke-linejoin:round;stroke-miterlimit:4;stroke-dasharray:none;stroke-dashoffset:0;stroke-opacity:1;paint-order:markers stroke fill" />
    <path
       id="rect874-6"
       d="m -137.16571,270.38125 -1.03977,0.0692 c -0.76033,0.0513 -0.88761,-0.46709 -0.95921,-1.28267 l -1.19129,-13.56769 c -0.0717,-0.81555 0.53528,-1.51701 1.29563,-1.56821 l 1.03977,-0.0693 c 0.76033,-0.0513 1.13854,-0.62302 1.37841,0.78697 0.23989,1.41001 0.19419,14.24083 0.19419,14.24083 0.0429,0.81759 0.0426,1.33959 -0.71775,1.39079 z"
       style="opacity:1;vector-effect:none;fill:#1d1d1d;fill-opacity:1;stroke:none;stroke-width:0;stroke-linecap:butt;stroke-linejoin:round;stroke-miterlimit:4;stroke-dasharray:none;stroke-dashoffset:0;stroke-opacity:1;paint-order:markers stroke fill" />
    <path
       id="path1107"
       d="m -136.7794,270.11583 c 0.0379,1.49059 0.55048,2.81505 -2.24133,2.81533 -2.40015,2.3e-4 -4.08902,0.42155 -4.12693,-1.06905 1.95523,-1.068 2.95696,-0.97802 4.40535,-3.39771 0.58523,-0.97769 1.925,0.16082 1.96291,1.65143 z"
       style="opacity:1;vector-effect:none;fill:#5b5b5b;fill-opacity:1;stroke:#f1c40f;stroke-width:0;stroke-linecap:butt;stroke-linejoin:round;stroke-miterlimit:4;stroke-dasharray:none;stroke-dashoffset:0;stroke-opacity:1;paint-order:markers stroke fill" />
    <path
       id="rect874-6-6"
       d="m -137.90005,256.70393 -1.0415,0.0332 c -0.76163,0.0249 -1.38128,-0.60438 -1.40179,-1.41052 l -0.35267,-13.86389 c -0.0205,-0.80613 0.69228,-0.89161 1.45392,-0.91645 l 1.04151,-0.0332 c 0.76164,-0.0249 1.15891,-0.575 1.35108,0.82102 0.19219,1.39605 0.29726,13.86967 0.29726,13.86967 0.0154,0.80626 -0.58616,1.47532 -1.34781,1.50017 z"
       style="opacity:1;vector-effect:none;fill:#1d1d1d;fill-opacity:1;stroke:none;stroke-width:0;stroke-linecap:butt;stroke-linejoin:round;stroke-miterlimit:4;stroke-dasharray:none;stroke-dashoffset:0;stroke-opacity:1;paint-order:markers stroke fill" />
    <path
       id="rect874-55-5"
       d="m -137.7007,254.77651 -0.72711,-0.11963 c -0.53182,-0.0869 -0.85898,-0.72798 -0.73348,-1.43771 l 2.06689,-11.69018 c 0.12527,-0.70978 0.65467,-1.21125 1.18653,-1.12449 l 0.72711,0.11963 c 0.53182,0.0869 0.89977,-0.3394 0.79769,0.91313 -0.10207,1.2526 -2.13109,12.21476 -2.13109,12.21476 -0.12527,0.70977 -0.65468,1.21122 -1.18654,1.12447 z"
       style="opacity:1;vector-effect:none;fill:#1d1d1d;fill-opacity:1;stroke:none;stroke-width:0;stroke-linecap:butt;stroke-linejoin:round;stroke-miterlimit:4;stroke-dasharray:none;stroke-dashoffset:0;stroke-opacity:1;paint-order:markers stroke fill" />
    <rect
       transform="matrix(0.97222157,0.23406241,-0.07556273,0.99714105,0,0)"
       ry="0.085600093"
       y="272.52658"
       x="-118.48233"
       height="9.8154783"
       width="0.079449601"
       id="rect1211"
       style="opacity:1;vector-effect:none;fill:#ffffff;fill-opacity:1;stroke:#f1c40f;stroke-width:0;stroke-linecap:butt;stroke-linejoin:round;stroke-miterlimit:4;stroke-dasharray:none;stroke-dashoffset:0;stroke-opacity:1;paint-order:markers stroke fill" />
    <rect
       transform="matrix(0.98981945,0.14232871,0.00258554,0.99999666,0,0)"
       ry="0.091090396"
       y="273.48608"
       x="-138.66092"
       height="10.44503"
       width="0.079193272"
       id="rect1211-2"
       style="opacity:1;vector-effect:none;fill:#ffffff;fill-opacity:1;stroke:#f1c40f;stroke-width:0;stroke-linecap:butt;stroke-linejoin:round;stroke-miterlimit:4;stroke-dasharray:none;stroke-dashoffset:0;stroke-opacity:1;paint-order:markers stroke fill" />
    <path
       style="opacity:1;vector-effect:none;fill:#000000;fill-opacity:1;stroke:none;stroke-width:0;stroke-linecap:butt;stroke-linejoin:round;stroke-miterlimit:4;stroke-dasharray:none;stroke-dashoffset:0;stroke-opacity:1;paint-order:markers stroke fill"
       d="m -134.81672,217.58092 c 0,0 0.36811,0.46091 0.62897,0.46589 0.27127,0.005 0.67208,-0.4592 0.67208,-0.4592 0.0127,-0.002 0.023,0.10514 0.023,0.12041 0,0.0153 -0.0103,0.0276 -0.023,0.0276 0,0 -0.39634,0.46314 -0.66596,0.4592 -0.26251,-0.004 -0.63509,-0.46589 -0.63509,-0.46589 -0.0127,-0.001 -0.023,-0.0123 -0.023,-0.0276 0,-0.0153 0.0103,-0.12042 0.023,-0.12042 z"
       id="path988-2-0-4" />
    <path
       id="path5093"
       d="m -137.97686,191.33682 a 9.3990867,5.1452605 0 0 0 -9.38893,5.03476 5.2388355,4.0928209 0 0 0 -0.16416,-0.007 5.2388355,4.0928209 0 0 0 -5.23891,4.09284 5.2388355,4.0928209 0 0 0 4.28855,4.02184 7.8582532,4.969854 0 0 0 -0.28243,1.29893 7.8582532,4.969854 0 0 0 7.85822,4.96965 7.8582532,4.969854 0 0 0 6.84441,-2.53344 4.0832101,1.7540661 0 0 0 1.8614,0.1949 4.0832101,1.7540661 0 0 0 3.57444,-0.90711 7.7812114,3.1573189 0 0 0 5.97864,1.1409 7.7812114,3.1573189 0 0 0 7.78137,-3.15724 7.7812114,3.1573189 0 0 0 -6.93587,-3.13734 9.9383792,5.379136 0 0 0 0.31013,-1.3064 9.9383792,5.379136 0 0 0 -7.16376,-5.16116 9.3990867,5.1452605 0 0 0 -9.3231,-4.54458 z"
       style="opacity:1;vector-effect:none;fill:#e6e6e6;fill-opacity:1;stroke:#f1c40f;stroke-width:0;stroke-linecap:butt;stroke-linejoin:round;stroke-miterlimit:4;stroke-dasharray:none;stroke-dashoffset:0;stroke-opacity:1;paint-order:markers stroke fill" />
    <path
       id="path5133"
       d="m -149.02591,217.95282 -0.10006,3.10188"
       style="fill:#ffffff;stroke:#393939;stroke-width:0.19811036px;stroke-linecap:butt;stroke-linejoin:miter;stroke-opacity:1" />
    <use
       style="fill:#2f7d7d;stroke:#393939;stroke-opacity:1;fill-opacity:1"
       transform="translate(6.637927,1.6582975)"
       height="100%"
       width="100%"
       y="0"
       x="0"
       xlink:href="#path5133"
       id="use5273" />
    <use
       style="fill:#ffffff;stroke:#393939;stroke-opacity:1"
       transform="translate(10.905962,5.5949222)"
       height="100%"
       width="100%"
       y="0"
       x="0"
       xlink:href="#path5133"
       id="use5275" />
    <use
       style="fill:#ffffff;stroke:#393939;stroke-opacity:1"
       transform="translate(9.5888718,20.601995)"
       height="100%"
       width="100%"
       y="0"
       x="0"
       xlink:href="#path5133"
       id="use5277" />
    <use
       style="fill:#ffffff;stroke:#393939;stroke-opacity:1"
       transform="translate(26.854709,-1.4888459)"
       height="100%"
       width="100%"
       y="0"
       x="0"
       xlink:href="#path5133"
       id="use5293" />
    <use
       style="fill:#ffffff;stroke:#393939;stroke-opacity:1"
       transform="translate(17.293792,1.3047238)"
       height="100%"
       width="100%"
       y="0"
       x="0"
       xlink:href="#path5133"
       id="use5295" />
    <use
       style="fill:#ffffff;stroke:#393939;stroke-opacity:1"
       transform="translate(19.729243,10.852388)"
       height="100%"
       width="100%"
       y="0"
       x="0"
       xlink:href="#path5133"
       id="use5299" />
    <use
       style="fill:#ffffff;stroke:#393939;stroke-opacity:1"
       transform="translate(19.382288,-7.7257249)"
       height="100%"
       width="100%"
       y="0"
       x="0"
       xlink:href="#path5133"
       id="use5301" />
    <use
       style="fill:#ffffff;stroke:#393939;stroke-opacity:1"
       transform="translate(23.388091,-4.5823478)"
       height="100%"
       width="100%"
       y="0"
       x="0"
       xlink:href="#path5133"
       id="use5303" />
    <use
       style="fill:#ffffff;stroke:#393939;stroke-opacity:1"
       transform="translate(20.557098,-0.02124671)"
       height="100%"
       width="100%"
       y="0"
       x="0"
       xlink:href="#path5133"
       id="use5305" />
    <use
       style="fill:#ffffff;stroke:#393939;stroke-opacity:1"
       transform="translate(22.61229,-9.6744121)"
       height="100%"
       width="100%"
       y="0"
       x="0"
       xlink:href="#path5133"
       id="use5307" />
    <use
       style="fill:#ffffff;stroke:#393939;stroke-opacity:1"
       transform="translate(-1.3007644,-4.069849)"
       height="100%"
       width="100%"
       y="0"
       x="0"
       xlink:href="#path5133"
       id="use5311" />
    <use
       style="fill:#ffffff;stroke:#393939;stroke-opacity:1"
       transform="translate(3.5395431,-9.8542277)"
       height="100%"
       width="100%"
       y="0"
       x="0"
       xlink:href="#path5133"
       id="use5313" />
    <use
       style="fill:#ffffff;stroke:#393939;stroke-opacity:1"
       transform="translate(5.5191468,19.534505)"
       height="100%"
       width="100%"
       y="0"
       x="0"
       xlink:href="#path5133"
       id="use5315" />
    <use
       style="fill:#ffffff;stroke:#393939;stroke-opacity:1"
       transform="translate(7.376485,26.952439)"
       height="100%"
       width="100%"
       y="0"
       x="0"
       xlink:href="#path5133"
       id="use5317" />
    <use
       style="fill:#ffffff;stroke:#393939;stroke-opacity:1"
       transform="translate(4.2478211,36.636109)"
       height="100%"
       width="100%"
       y="0"
       x="0"
       xlink:href="#path5133"
       id="use5319" />
    <use
       style="fill:#ffffff;stroke:#393939;stroke-opacity:1"
       transform="translate(0.35012458,34.088298)"
       height="100%"
       width="100%"
       y="0"
       x="0"
       xlink:href="#path5133"
       id="use5321" />
    <use
       style="fill:#ffffff;stroke:#393939;stroke-opacity:1"
       transform="translate(1.2036253,44.171658)"
       height="100%"
       width="100%"
       y="0"
       x="0"
       xlink:href="#path5133"
       id="use5325" />
    <use
       style="fill:#ffffff;stroke:#393939;stroke-opacity:1"
       transform="translate(-0.28792685,47.645277)"
       height="100%"
       width="100%"
       y="0"
       x="0"
       xlink:href="#path5133"
       id="use5327" />
    <use
       style="fill:#ffffff;stroke:#393939;stroke-opacity:1"
       transform="translate(24.821689,29.969147)"
       height="100%"
       width="100%"
       y="0"
       x="0"
       xlink:href="#path5133"
       id="use5329" />
    <use
       style="fill:#ffffff;stroke:#393939;stroke-opacity:1"
       transform="translate(19.382543,28.580895)"
       height="100%"
       width="100%"
       y="0"
       x="0"
       xlink:href="#path5133"
       id="use5331" />
    <use
       style="fill:#ffffff;stroke:#393939;stroke-opacity:1"
       transform="translate(17.911447,26.49746)"
       height="100%"
       width="100%"
       y="0"
       x="0"
       xlink:href="#path5133"
       id="use5333" />
    <use
       style="fill:#ffffff;stroke:#393939;stroke-opacity:1"
       transform="translate(24.561643,45.470142)"
       height="100%"
       width="100%"
       y="0"
       x="0"
       xlink:href="#path5133"
       id="use5335" />
    <use
       style="fill:#ffffff;stroke:#393939;stroke-opacity:1"
       transform="translate(21.433691,38.813655)"
       height="100%"
       width="100%"
       y="0"
       x="0"
       xlink:href="#path5133"
       id="use5337" />
    <use
       style="fill:#ffffff;stroke:#393939;stroke-opacity:1"
       transform="translate(18.373719,42.337494)"
       height="100%"
       width="100%"
       y="0"
       x="0"
       xlink:href="#path5133"
       id="use5339" />
    <use
       style="fill:#ffffff;stroke:#393939;stroke-opacity:1"
       transform="translate(13.112703,14.902159)"
       height="100%"
       width="100%"
       y="0"
       x="0"
       xlink:href="#path5133"
       id="use5341" />
    <use
       style="fill:#ffffff;stroke:#393939;stroke-opacity:1"
       transform="translate(18.829274,16.496846)"
       height="100%"
       width="100%"
       y="0"
       x="0"
       xlink:href="#path5133"
       id="use5343" />
    <use
       style="fill:#ffffff;stroke:#393939;stroke-opacity:1"
       transform="translate(2.0340715,10.081851)"
       height="100%"
       width="100%"
       y="0"
       x="0"
       xlink:href="#path5133"
       id="use5355" />
    <use
       style="fill:#ffffff;stroke:#393939;stroke-opacity:1"
       transform="translate(5.6570392,15.10753)"
       height="100%"
       width="100%"
       y="0"
       x="0"
       xlink:href="#path5133"
       id="use5357" />
    <use
       style="fill:#ffffff;stroke:#393939;stroke-opacity:1"
       transform="translate(-2.7212214,17.831899)"
       height="100%"
       width="100%"
       y="0"
       x="0"
       xlink:href="#path5133"
       id="use5359" />
    <use
       style="fill:#ffffff;stroke:#393939;stroke-opacity:1"
       transform="translate(-1.9404257,13.328535)"
       height="100%"
       width="100%"
       y="0"
       x="0"
       xlink:href="#path5133"
       id="use5361" />
    <use
       style="fill:#ffffff;stroke:#393939;stroke-opacity:1"
       transform="translate(1.3007923,22.77606)"
       height="100%"
       width="100%"
       y="0"
       x="0"
       xlink:href="#path5133"
       id="use5363" />
    <path
       id="path5397"
       d="m -131.98837,200.5233 -2.57248,7.71744 4.77746,-1.10249 -0.97999,8.94242 4.40996,-11.5149 -4.65496,1.22499 z"
       style="fill:#d4aa00;stroke:none;stroke-width:0.08574925px;stroke-linecap:butt;stroke-linejoin:miter;stroke-opacity:1" />
    <text
       id="text5401"
       y="204.05573"
       x="-145.04288"
       style="font-style:normal;font-weight:normal;font-size:6.07369947px;line-height:1.25;font-family:sans-serif;letter-spacing:0px;word-spacing:0px;fill:#393939;fill-opacity:1;stroke:none;stroke-width:0.15184249"
       xml:space="preserve"><tspan
         style="fill:#393939;fill-opacity:1;stroke-width:0.15184249"
         y="204.05573"
         x="-145.04288"
         id="tspan5399">PRIDE</tspan></text>
  </g>
</svg>
