<?xml version="1.0" encoding="UTF-8" standalone="no"?>
<!-- Created with Inkscape (http://www.inkscape.org/) -->

<svg
   xmlns:dc="http://purl.org/dc/elements/1.1/"
   xmlns:cc="http://creativecommons.org/ns#"
   xmlns:rdf="http://www.w3.org/1999/02/22-rdf-syntax-ns#"
   xmlns:svg="http://www.w3.org/2000/svg"
   xmlns="http://www.w3.org/2000/svg"
   xmlns:sodipodi="http://sodipodi.sourceforge.net/DTD/sodipodi-0.dtd"
   xmlns:inkscape="http://www.inkscape.org/namespaces/inkscape"
   width="97.794189mm"
   height="84.382301mm"
   viewBox="0 0 97.794191 84.3823"
   version="1.1"
   id="svg8"
   inkscape:version="0.92.2 (5c3e80d, 2017-08-06)"
   sodipodi:docname="secret_sin.svg">
  <defs
     id="defs2" />
  <sodipodi:namedview
     id="base"
     pagecolor="#ffffff"
     bordercolor="#666666"
     borderopacity="1.0"
     inkscape:pageopacity="0.0"
     inkscape:pageshadow="2"
     inkscape:zoom="0.64"
     inkscape:cx="333.92822"
     inkscape:cy="207.37084"
     inkscape:document-units="mm"
     inkscape:current-layer="layer1"
     showgrid="false"
     inkscape:snap-global="false"
     inkscape:snap-bbox="true"
     inkscape:bbox-nodes="true"
     inkscape:bbox-paths="true"
     fit-margin-top="0"
     fit-margin-left="0"
     fit-margin-right="0"
     fit-margin-bottom="0"
     inkscape:window-width="1366"
     inkscape:window-height="749"
     inkscape:window-x="-4"
     inkscape:window-y="-4"
     inkscape:window-maximized="1" />
  <metadata
     id="metadata5">
    <rdf:RDF>
      <cc:Work
         rdf:about="">
        <dc:format>image/svg+xml</dc:format>
        <dc:type
           rdf:resource="http://purl.org/dc/dcmitype/StillImage" />
        <dc:title />
      </cc:Work>
    </rdf:RDF>
  </metadata>
  <g
     inkscape:label="Layer 1"
     inkscape:groupmode="layer"
     id="layer1"
     transform="translate(-440.16513,-637.68384)">
    <text
       xml:space="preserve"
       style="font-style:normal;font-weight:normal;font-size:10.58333302px;line-height:1.25;font-family:sans-serif;letter-spacing:0px;word-spacing:0px;fill:#000000;fill-opacity:1;stroke:none;stroke-width:0.26458332"
       x="-17.105249"
       y="572.82214"
       id="text929"><tspan
         sodipodi:role="line"
         id="tspan927"
         x="-17.105249"
         y="582.47766"
         style="stroke-width:0.26458332" /></text>
    <rect
       style="opacity:1;vector-effect:none;fill:#ffffff;fill-opacity:1;stroke:#f1c40f;stroke-width:0;stroke-linecap:butt;stroke-linejoin:round;stroke-miterlimit:4;stroke-dasharray:none;stroke-dashoffset:0;stroke-opacity:1;paint-order:markers stroke fill"
       id="rect1822"
       width="97.794189"
       height="84.382301"
       x="440.16513"
       y="637.68384"
       ry="0" />
    <ellipse
       style="opacity:1;vector-effect:none;fill:#333333;fill-opacity:1;stroke:none;stroke-width:0;stroke-linecap:butt;stroke-linejoin:round;stroke-miterlimit:4;stroke-dasharray:none;stroke-dashoffset:0;stroke-opacity:1;paint-order:markers stroke fill"
       id="path995"
       cx="489.59995"
       cy="718.89386"
       rx="18.490675"
       ry="3.077616" />
    <path
       sodipodi:nodetypes="sssssss"
       inkscape:connector-curvature="0"
       id="path936"
       d="m 489.4799,640.11695 c 2.69777,0 5.18319,2.66115 4.86963,5.93308 l -0.47116,4.91626 c -0.31357,3.27193 -1.7007,5.91009 -4.39847,5.91009 -2.69777,0 -4.09656,-2.49259 -4.40017,-5.76547 l -0.46946,-5.06088 c -0.3036,-3.27287 2.17186,-5.93308 4.86963,-5.93308 z"
       style="opacity:1;vector-effect:none;fill:#241f1c;fill-opacity:1;stroke:none;stroke-width:0;stroke-linecap:butt;stroke-linejoin:round;stroke-miterlimit:4;stroke-dasharray:none;stroke-dashoffset:0;stroke-opacity:1;paint-order:markers stroke fill" />
    <path
       sodipodi:nodetypes="csssssc"
       inkscape:connector-curvature="0"
       id="path938"
       d="m 496.49518,648.54524 c 0,0 6.91268,9.25088 7.61859,14.54679 0.45242,3.39417 -4.83065,9.90138 -6.54846,14.15474 -0.58829,1.45663 -2.61256,0.0584 -2.44185,-2.1452 0.17072,-2.20358 6.37591,-8.56082 5.61004,-12.14101 -0.76586,-3.58016 -6.16534,-9.73974 -5.99463,-11.94335 0.17071,-2.2036 1.75631,-2.47197 1.75631,-2.47197 z"
       style="fill:#a05a2c;fill-opacity:1;stroke:#00eeff;stroke-width:0;stroke-linecap:butt;stroke-linejoin:miter;stroke-miterlimit:4;stroke-dasharray:none;stroke-opacity:1" />
    <rect
       style="opacity:1;vector-effect:none;fill:#1a1a1a;fill-opacity:1;stroke:none;stroke-width:0;stroke-linecap:butt;stroke-linejoin:round;stroke-miterlimit:4;stroke-dasharray:none;stroke-dashoffset:0;stroke-opacity:1;paint-order:markers stroke fill"
       id="rect942"
       width="4.3726377"
       height="20.999306"
       x="-300.45517"
       y="746.21832"
       ry="1.6363097"
       transform="matrix(-0.98946964,0.14474059,0.26516771,0.9642023,0,0)" />
    <ellipse
       style="opacity:1;vector-effect:none;fill:#008080;fill-opacity:1;stroke:none;stroke-width:0;stroke-linecap:butt;stroke-linejoin:round;stroke-miterlimit:4;stroke-dasharray:none;stroke-dashoffset:0;stroke-opacity:1;paint-order:markers stroke fill"
       id="path815"
       cx="489.45251"
       cy="662.82965"
       rx="7.9981289"
       ry="16.93136" />
    <path
       sodipodi:nodetypes="csssssc"
       inkscape:connector-curvature="0"
       id="path946"
       d="m 484.482,647.93665 c 0,0 -8.64078,9.28465 -9.75362,14.51021 -0.71322,3.3491 3.42898,9.45912 4.81316,13.83245 0.47403,1.49772 2.60024,0.26002 2.60024,-1.95018 0,-2.21022 -5.07319,-8.24192 -4.03309,-11.75226 1.0401,-3.51032 7.93345,-9.82977 7.93345,-12.03998 0,-2.21021 -1.56014,-2.60024 -1.56014,-2.60024 z"
       style="fill:#a05a2c;fill-opacity:1;stroke:none;stroke-width:0.06435277px;stroke-linecap:butt;stroke-linejoin:miter;stroke-opacity:1" />
    <path
       style="opacity:1;vector-effect:none;fill:#008080;fill-opacity:1;stroke:none;stroke-width:0;stroke-linecap:butt;stroke-linejoin:round;stroke-miterlimit:4;stroke-dasharray:none;stroke-dashoffset:0;stroke-opacity:1;paint-order:markers stroke fill"
       d="m 485.0987,648.35816 0.77716,1.4497 c 0.33489,0.62469 0.69225,0.78963 0.28398,1.36905 l -3.13735,4.45253 c -0.40826,0.57941 -1.69915,2.84454 -1.69915,2.84454 l -4.07125,-2.93801 c 1.49712,-2.9116 3.39607,-7.07278 6.76018,-7.83351 1.10721,-0.25037 0.75153,0.031 1.08643,0.65571 z"
       id="rect903"
       inkscape:connector-curvature="0"
       sodipodi:nodetypes="csssccssc" />
    <rect
       transform="rotate(-66.332567)"
       ry="1.5168866"
       y="716.53265"
       x="-426.58899"
       height="8.8255224"
       width="3.0337732"
       id="rect950"
       style="opacity:1;vector-effect:none;fill:#1a1a1a;fill-opacity:1;stroke:none;stroke-width:0;stroke-linecap:butt;stroke-linejoin:round;stroke-miterlimit:4;stroke-dasharray:none;stroke-dashoffset:0;stroke-opacity:1;paint-order:markers stroke fill" />
    <path
       style="opacity:1;vector-effect:none;fill:#ffcc00;fill-opacity:1;stroke:#333333;stroke-width:0;stroke-linecap:butt;stroke-linejoin:round;stroke-miterlimit:4;stroke-dasharray:none;stroke-dashoffset:0;stroke-opacity:1;paint-order:markers stroke fill"
       d="m 496.76555,671.81726 h -15.84113 c 0,-2.13206 1.41626,-3.86044 7.92056,-3.86044 6.5043,0 7.92057,1.72838 7.92057,3.86044 z"
       id="path1567"
       inkscape:connector-curvature="0"
       sodipodi:nodetypes="cczc" />
    <rect
       style="opacity:1;vector-effect:none;fill:#d4aa00;fill-opacity:1;stroke:#ffcc00;stroke-width:0;stroke-linecap:butt;stroke-linejoin:round;stroke-miterlimit:4;stroke-dasharray:none;stroke-dashoffset:0;stroke-opacity:1;paint-order:markers stroke fill"
       id="rect1570"
       width="15.841122"
       height="5.1916285"
       x="480.92441"
       y="673.14844"
       ry="0.088027552"
       rx="0" />
    <rect
       style="opacity:1;vector-effect:none;fill:#806600;fill-opacity:1;stroke:#806600;stroke-width:0;stroke-linecap:butt;stroke-linejoin:round;stroke-miterlimit:4;stroke-dasharray:none;stroke-dashoffset:0;stroke-opacity:1;paint-order:markers stroke fill"
       id="rect1626-0"
       width="0.94144797"
       height="15.841122"
       x="-676.5592"
       y="-496.76553"
       ry="0"
       transform="matrix(0,-1,-1,0,0,0)" />
    <rect
       style="opacity:1;vector-effect:none;fill:#806600;fill-opacity:1;stroke:#333333;stroke-width:0;stroke-linecap:butt;stroke-linejoin:round;stroke-miterlimit:4;stroke-dasharray:none;stroke-dashoffset:0;stroke-opacity:1;paint-order:markers stroke fill"
       id="rect1574"
       width="15.841122"
       height="1.3311868"
       x="480.92441"
       y="671.81732"
       ry="0.088027552"
       rx="0" />
    <path
       style="opacity:1;vector-effect:none;fill:#1a1a1a;fill-opacity:1;stroke:#333333;stroke-width:0;stroke-linecap:butt;stroke-linejoin:round;stroke-miterlimit:4;stroke-dasharray:none;stroke-dashoffset:0;stroke-opacity:1;paint-order:markers stroke fill"
       d="m 488.91959,674.54406 a 0.8046527,0.8046527 0 0 0 -0.80465,0.80466 0.8046527,0.8046527 0 0 0 0.47277,0.73216 v 1.75856 c 0,0.0347 0.0279,0.0627 0.0627,0.0627 h 0.53842 c 0.0347,0 0.0627,-0.028 0.0627,-0.0627 v -1.75882 a 0.8046527,0.8046527 0 0 0 0.47272,-0.7319 0.8046527,0.8046527 0 0 0 -0.80465,-0.80466 z"
       id="path1576"
       inkscape:connector-curvature="0" />
    <path
       style="opacity:1;vector-effect:none;fill:#d4aa00;fill-opacity:1;stroke:#333333;stroke-width:0;stroke-linecap:butt;stroke-linejoin:round;stroke-miterlimit:4;stroke-dasharray:none;stroke-dashoffset:0;stroke-opacity:1;paint-order:markers stroke fill"
       d="m 484.76382,667.76049 h 0.61357 c 0.23566,0 0.42537,0.18436 0.42537,0.41338 v 3.64522 c 0,0 -0.18971,0 -0.42537,0 h -0.61357 c -0.23566,0 -0.42537,0 -0.42537,0 v -3.64522 c 0,-0.22902 0.18971,-0.41338 0.42537,-0.41338 z"
       id="rect1583"
       inkscape:connector-curvature="0"
       sodipodi:nodetypes="ssscsscss" />
    <rect
       ry="0"
       y="671.82501"
       x="484.33841"
       height="1.3234648"
       width="1.4643055"
       id="rect1585"
       style="opacity:1;vector-effect:none;fill:#554400;fill-opacity:1;stroke:#333333;stroke-width:0;stroke-linecap:butt;stroke-linejoin:round;stroke-miterlimit:4;stroke-dasharray:none;stroke-dashoffset:0;stroke-opacity:1;paint-order:markers stroke fill" />
    <rect
       ry="0"
       y="673.14844"
       x="484.33841"
       height="5.1916285"
       width="1.4643055"
       id="rect1585-9"
       style="opacity:1;vector-effect:none;fill:#806600;fill-opacity:1;stroke:#806600;stroke-width:0;stroke-linecap:butt;stroke-linejoin:round;stroke-miterlimit:4;stroke-dasharray:none;stroke-dashoffset:0;stroke-opacity:1;paint-order:markers stroke fill" />
    <path
       sodipodi:nodetypes="ssscsscss"
       inkscape:connector-curvature="0"
       id="path1622"
       d="m 492.21976,667.76049 h 0.61357 c 0.23566,0 0.42537,0.18436 0.42537,0.41338 v 3.64522 c 0,0 -0.18971,0 -0.42537,0 h -0.61357 c -0.23565,0 -0.42537,0 -0.42537,0 v -3.64522 c 0,-0.22902 0.18972,-0.41338 0.42537,-0.41338 z"
       style="opacity:1;vector-effect:none;fill:#d4aa00;fill-opacity:1;stroke:#333333;stroke-width:0;stroke-linecap:butt;stroke-linejoin:round;stroke-miterlimit:4;stroke-dasharray:none;stroke-dashoffset:0;stroke-opacity:1;paint-order:markers stroke fill" />
    <rect
       style="opacity:1;vector-effect:none;fill:#554400;fill-opacity:1;stroke:#333333;stroke-width:0;stroke-linecap:butt;stroke-linejoin:round;stroke-miterlimit:4;stroke-dasharray:none;stroke-dashoffset:0;stroke-opacity:1;paint-order:markers stroke fill"
       id="rect1624"
       width="1.4643055"
       height="1.3234648"
       x="491.79437"
       y="671.82501"
       ry="0" />
    <rect
       style="opacity:1;vector-effect:none;fill:#806600;fill-opacity:1;stroke:#806600;stroke-width:0;stroke-linecap:butt;stroke-linejoin:round;stroke-miterlimit:4;stroke-dasharray:none;stroke-dashoffset:0;stroke-opacity:1;paint-order:markers stroke fill"
       id="rect1626"
       width="1.4643055"
       height="5.1916285"
       x="491.79437"
       y="673.14844"
       ry="0" />
    <rect
       style="opacity:1;vector-effect:none;fill:#1a1a1a;fill-opacity:1;stroke:none;stroke-width:0;stroke-linecap:butt;stroke-linejoin:round;stroke-miterlimit:4;stroke-dasharray:none;stroke-dashoffset:0;stroke-opacity:1;paint-order:markers stroke fill"
       id="rect960"
       width="4.3456788"
       height="23.845392"
       x="-723.93396"
       y="545.94885"
       ry="1.8580828"
       transform="matrix(-0.96653114,-0.25654933,-0.36407398,0.93137003,0,0)" />
    <path
       style="opacity:1;vector-effect:none;fill:#808080;fill-opacity:1;stroke:none;stroke-width:0;stroke-linecap:butt;stroke-linejoin:round;stroke-miterlimit:4;stroke-dasharray:none;stroke-dashoffset:0;stroke-opacity:1;paint-order:markers stroke fill"
       d="m 490.01074,712.62512 c -0.40462,0.0107 -0.79931,0.21647 -1.07766,0.60846 l -0.20198,0.28443 c -0.52397,0.73786 -0.43144,1.84789 0.20739,2.48889 0.79904,0.58611 1.64825,1.46917 2.36722,2.12213 0.97262,0.88331 0.94035,1.28451 4.31867,1.24911 1.32394,-0.0139 1.69498,-0.20903 1.99633,-0.99056 0.40703,-0.9904 -0.56763,-1.31163 -1.11184,-1.46851 -0.54251,-0.15691 -1.92425,-0.75066 -3.07071,-1.37175 -0.82671,-0.44788 -1.72373,-1.80383 -2.40619,-2.48859 -0.29945,-0.30045 -0.66421,-0.44301 -1.02123,-0.43361 z"
       id="rect962"
       inkscape:connector-curvature="0"
       sodipodi:nodetypes="ccccssccscc" />
    <text
       xml:space="preserve"
       style="font-style:normal;font-variant:normal;font-weight:normal;font-stretch:normal;font-size:3.94950533px;line-height:1.25;font-family:'Adobe Gothic Std';-inkscape-font-specification:'Adobe Gothic Std';letter-spacing:0px;word-spacing:0px;fill:#000000;fill-opacity:1;stroke:none;stroke-width:0.09873763"
       x="485.75693"
       y="671.42627"
       id="text1658"><tspan
         sodipodi:role="line"
         id="tspan1656"
         x="485.75693"
         y="671.42627"
         style="font-style:normal;font-variant:normal;font-weight:normal;font-stretch:normal;font-family:'Adobe Gothic Std';-inkscape-font-specification:'Adobe Gothic Std';fill:#000000;stroke-width:0.09873763">SIN</tspan></text>
    <ellipse
       ry="3.9530985"
       rx="1.8386506"
       cy="674.58997"
       cx="481.1702"
       id="ellipse966"
       style="opacity:1;vector-effect:none;fill:#a05a2c;fill-opacity:1;stroke:#ffcc00;stroke-width:0;stroke-linecap:butt;stroke-linejoin:round;stroke-miterlimit:4;stroke-dasharray:none;stroke-dashoffset:0;stroke-opacity:1;paint-order:markers stroke fill" />
    <path
       sodipodi:nodetypes="sssscssssss"
       inkscape:connector-curvature="0"
       id="path958"
       d="m 483.44154,675.49555 0.88495,-0.002 c 0.97719,-0.002 1.76644,0.78305 1.76962,1.76025 0,0 0.0186,5.7408 0.0279,8.6112 0.0113,3.49921 -0.0355,12.23542 -0.0355,12.23542 0,0 -0.71147,0.0277 -1.68868,0.0297 l -0.88495,0.002 c -0.9772,0.002 -1.76644,-0.78304 -1.76961,-1.76024 0,0 -0.0233,-7.17768 -0.0349,-10.76652 -0.009,-2.78077 -0.027,-8.3423 -0.027,-8.3423 -0.004,-0.9772 0.78097,-1.76552 1.75818,-1.76754 z"
       inkscape:transform-center-y="-0.0077174356"
       inkscape:transform-center-x="-0.14307787"
       style="opacity:1;vector-effect:none;fill:#1a1a1a;fill-opacity:1;stroke:none;stroke-width:0;stroke-linecap:butt;stroke-linejoin:round;stroke-miterlimit:4;stroke-dasharray:none;stroke-dashoffset:0;stroke-opacity:1;paint-order:markers stroke fill" />
    <path
       style="opacity:1;vector-effect:none;fill:#808080;fill-opacity:1;stroke:none;stroke-width:0;stroke-linecap:butt;stroke-linejoin:round;stroke-miterlimit:4;stroke-dasharray:none;stroke-dashoffset:0;stroke-opacity:1;paint-order:markers stroke fill"
       d="m 485.65411,698.10621 c 0,0 -5.46976,0.03 -5.54975,0 0,-2.38445 1.24235,-4.31742 2.77487,-4.31741 1.53252,0 2.77488,1.93296 2.77488,4.31741 z"
       id="ellipse948"
       inkscape:connector-curvature="0"
       sodipodi:nodetypes="ccsc" />
    <ellipse
       style="opacity:1;vector-effect:none;fill:#a05a2c;fill-opacity:1;stroke:#ffcc00;stroke-width:0;stroke-linecap:butt;stroke-linejoin:round;stroke-miterlimit:4;stroke-dasharray:none;stroke-dashoffset:0;stroke-opacity:1;paint-order:markers stroke fill"
       id="ellipse968"
       cx="496.27936"
       cy="674.58997"
       rx="1.8386506"
       ry="3.9530985" />
    <path
       style="opacity:1;vector-effect:none;fill:#008080;fill-opacity:1;stroke:none;stroke-width:0;stroke-linecap:butt;stroke-linejoin:round;stroke-miterlimit:4;stroke-dasharray:none;stroke-dashoffset:0;stroke-opacity:1;paint-order:markers stroke fill"
       d="m 493.89107,648.35816 -0.77717,1.4497 c -0.33488,0.62469 -0.69225,0.78963 -0.28398,1.36905 l 3.13734,4.45253 c 0.40828,0.57941 1.69917,2.84454 1.69917,2.84454 l 4.07125,-2.93801 c -1.49713,-2.9116 -3.39607,-7.07278 -6.76018,-7.83351 -1.10723,-0.25037 -0.75154,0.031 -1.08643,0.65571 z"
       id="rect903-3"
       inkscape:connector-curvature="0"
       sodipodi:nodetypes="csssccssc" />
    <ellipse
       ry="4.2169552"
       rx="4.3879128"
       cy="653.23126"
       cx="489.47614"
       id="ellipse972"
       style="opacity:1;vector-effect:none;fill:#6f4225;fill-opacity:1;stroke:none;stroke-width:0;stroke-linecap:butt;stroke-linejoin:round;stroke-miterlimit:4;stroke-dasharray:none;stroke-dashoffset:0;stroke-opacity:1;paint-order:markers stroke fill" />
    <path
       sodipodi:nodetypes="ssszsss"
       inkscape:connector-curvature="0"
       id="path974"
       d="m 489.4799,641.84983 c 2.69938,0 5.06966,2.37035 4.87252,5.29984 l -0.29878,4.43993 c -0.19714,2.92948 -2.68491,5.14703 -4.57374,5.23089 -1.88884,0.0839 -4.26119,-2.32789 -4.50479,-5.25387 l -0.36773,-4.41695 c -0.24361,-2.92599 2.17314,-5.29984 4.87252,-5.29984 z"
       style="opacity:1;vector-effect:none;fill:#a05a2c;fill-opacity:1;stroke:none;stroke-width:0;stroke-linecap:butt;stroke-linejoin:round;stroke-miterlimit:4;stroke-dasharray:none;stroke-dashoffset:0;stroke-opacity:1;paint-order:markers stroke fill" />
    <path
       inkscape:connector-curvature="0"
       id="path976"
       d="m 484.57471,646.60935 0.16025,2.63149 h 9.48122 l 0.16561,-2.5843 z m 6.69788,0.25483 c 0.52682,10e-6 0.9539,0.4669 0.95389,1.04284 -2e-5,0.57591 -0.42708,1.04278 -0.95389,1.04279 -0.52683,2e-5 -0.95393,-0.46686 -0.95394,-1.04279 -2e-5,-0.57595 0.4271,-1.04286 0.95394,-1.04284 z m -3.76786,0.0485 c 0.52682,10e-6 0.95389,0.46687 0.9539,1.04278 10e-6,0.57594 -0.42706,1.04282 -0.9539,1.04283 -0.52682,-10e-6 -0.9539,-0.46689 -0.95389,-1.04283 1e-5,-0.57591 0.42708,-1.04277 0.95389,-1.04278 z"
       style="opacity:1;vector-effect:none;fill:#000000;fill-opacity:1;stroke:none;stroke-width:0;stroke-linecap:butt;stroke-linejoin:round;stroke-miterlimit:4;stroke-dasharray:none;stroke-dashoffset:0;stroke-opacity:1;paint-order:markers stroke fill"
       sodipodi:nodetypes="ccccccccccccccc" />
    <ellipse
       ry="1.6896285"
       rx="3.1840074"
       cy="641.9021"
       cx="489.50803"
       id="ellipse980"
       style="opacity:1;vector-effect:none;fill:#241f1c;fill-opacity:1;stroke:none;stroke-width:0;stroke-linecap:butt;stroke-linejoin:round;stroke-miterlimit:4;stroke-dasharray:none;stroke-dashoffset:0;stroke-opacity:1;paint-order:markers stroke fill" />
    <g
       id="g1773"
       transform="matrix(0.55982904,0,0,0.55982904,141.58867,320.37846)">
      <ellipse
         style="opacity:1;vector-effect:none;fill:#f9f9f9;fill-opacity:1;stroke:none;stroke-width:0;stroke-linecap:butt;stroke-linejoin:round;stroke-miterlimit:4;stroke-dasharray:none;stroke-dashoffset:0;stroke-opacity:1;paint-order:markers stroke fill"
         id="ellipse984"
         cx="624.63586"
         cy="585.07355"
         rx="1.6176811"
         ry="1.7172307" />
      <ellipse
         ry="0.59778357"
         rx="0.56312948"
         cy="585.10284"
         cx="623.77631"
         id="ellipse986"
         style="opacity:1;vector-effect:none;fill:#000000;fill-opacity:1;stroke:none;stroke-width:0;stroke-linecap:butt;stroke-linejoin:round;stroke-miterlimit:4;stroke-dasharray:none;stroke-dashoffset:0;stroke-opacity:1;paint-order:markers stroke fill" />
    </g>
    <path
       sodipodi:nodetypes="sasssasss"
       inkscape:connector-curvature="0"
       id="path988"
       d="m 488.05317,654.03634 c 0,0 0.98184,-0.33046 1.48585,-0.33581 0.55627,-0.006 1.64519,0.33581 1.64519,0.33581 0.0341,-0.005 0.062,0.0331 0.062,0.0743 0,0.0412 -0.0277,0.0743 -0.062,0.0743 0,0 -1.07782,-0.34043 -1.62869,-0.33581 -0.50942,0.004 -1.50235,0.33581 -1.50235,0.33581 -0.0341,-0.005 -0.062,-0.0331 -0.062,-0.0743 0,-0.0412 0.0277,-0.0743 0.062,-0.0743 z"
       style="opacity:1;vector-effect:none;fill:#000000;fill-opacity:1;stroke:none;stroke-width:0;stroke-linecap:butt;stroke-linejoin:round;stroke-miterlimit:4;stroke-dasharray:none;stroke-dashoffset:0;stroke-opacity:1;paint-order:markers stroke fill" />
    <g
       id="g1779"
       transform="matrix(0.55265082,0,0,0.55265082,142.20877,324.59656)">
      <ellipse
         ry="1.7172307"
         rx="1.6176811"
         cy="585.07355"
         cx="624.63586"
         id="ellipse1775"
         style="opacity:1;vector-effect:none;fill:#f9f9f9;fill-opacity:1;stroke:none;stroke-width:0;stroke-linecap:butt;stroke-linejoin:round;stroke-miterlimit:4;stroke-dasharray:none;stroke-dashoffset:0;stroke-opacity:1;paint-order:markers stroke fill" />
      <ellipse
         style="opacity:1;vector-effect:none;fill:#000000;fill-opacity:1;stroke:none;stroke-width:0;stroke-linecap:butt;stroke-linejoin:round;stroke-miterlimit:4;stroke-dasharray:none;stroke-dashoffset:0;stroke-opacity:1;paint-order:markers stroke fill"
         id="ellipse1777"
         cx="623.77631"
         cy="585.10284"
         rx="0.56312948"
         ry="0.59778357" />
    </g>
  </g>
</svg>
